<svg viewBox="0 0 1323.0113525390625 400" xmlns="http://www.w3.org/2000/svg"><g><g><g><g><g><line x1="31.59375" y1="377" x2="26.59375" y2="377" style="visibility: inherit;" fill="rgb(0, 0, 0)" stroke="rgb(204, 204, 204)" stroke-width="1px"></line><line x1="31.59375" y1="339.3" x2="26.59375" y2="339.3" style="visibility: inherit;" fill="rgb(0, 0, 0)" stroke="rgb(204, 204, 204)" stroke-width="1px"></line><line x1="31.59375" y1="301.6" x2="26.59375" y2="301.6" style="visibility: inherit;" fill="rgb(0, 0, 0)" stroke="rgb(204, 204, 204)" stroke-width="1px"></line><line x1="31.59375" y1="263.9" x2="26.59375" y2="263.9" style="visibility: inherit;" fill="rgb(0, 0, 0)" stroke="rgb(204, 204, 204)" stroke-width="1px"></line><line x1="31.59375" y1="226.2" x2="26.59375" y2="226.2" style="visibility: inherit;" fill="rgb(0, 0, 0)" stroke="rgb(204, 204, 204)" stroke-width="1px"></line><line x1="31.59375" y1="188.5" x2="26.59375" y2="188.5" style="visibility: inherit;" fill="rgb(0, 0, 0)" stroke="rgb(204, 204, 204)" stroke-width="1px"></line><line x1="31.59375" y1="150.8" x2="26.59375" y2="150.8" style="visibility: inherit;" fill="rgb(0, 0, 0)" stroke="rgb(204, 204, 204)" stroke-width="1px"></line><line x1="31.59375" y1="113.10000000000002" x2="26.59375" y2="113.10000000000002" style="visibility: inherit;" fill="rgb(0, 0, 0)" stroke="rgb(204, 204, 204)" stroke-width="1px"></line><line x1="31.59375" y1="75.39999999999998" x2="26.59375" y2="75.39999999999998" style="visibility: inherit;" fill="rgb(0, 0, 0)" stroke="rgb(204, 204, 204)" stroke-width="1px"></line><line x1="31.59375" y1="37.69999999999999" x2="26.59375" y2="37.69999999999999" style="visibility: inherit;" fill="rgb(0, 0, 0)" stroke="rgb(204, 204, 204)" stroke-width="1px"></line><line x1="31.59375" y1="0" x2="26.59375" y2="0" style="visibility: inherit;" fill="rgb(0, 0, 0)" stroke="rgb(204, 204, 204)" stroke-width="1px"></line></g><g transform="translate(21.59375, 0)"><text x="0" y="377" dx="0em" dy="0.3em" style="text-anchor: end; visibility: hidden; font-family: &quot;Helvetica Neue&quot;, sans-serif; font-size: 12px; font-weight: 200;" fill="rgb(50, 49, 63)" stroke="none" stroke-width="1px">-1</text><text x="0" y="339.3" dx="0em" dy="0.3em" style="text-anchor: end; visibility: inherit; font-family: &quot;Helvetica Neue&quot;, sans-serif; font-size: 12px; font-weight: 200;" fill="rgb(50, 49, 63)" stroke="none" stroke-width="1px">0</text><text x="0" y="301.6" dx="0em" dy="0.3em" style="text-anchor: end; visibility: inherit; font-family: &quot;Helvetica Neue&quot;, sans-serif; font-size: 12px; font-weight: 200;" fill="rgb(50, 49, 63)" stroke="none" stroke-width="1px">1</text><text x="0" y="263.9" dx="0em" dy="0.3em" style="text-anchor: end; visibility: inherit; font-family: &quot;Helvetica Neue&quot;, sans-serif; font-size: 12px; font-weight: 200;" fill="rgb(50, 49, 63)" stroke="none" stroke-width="1px">2</text><text x="0" y="226.2" dx="0em" dy="0.3em" style="text-anchor: end; visibility: inherit; font-family: &quot;Helvetica Neue&quot;, sans-serif; font-size: 12px; font-weight: 200;" fill="rgb(50, 49, 63)" stroke="none" stroke-width="1px">3</text><text x="0" y="188.5" dx="0em" dy="0.3em" style="text-anchor: end; visibility: inherit; font-family: &quot;Helvetica Neue&quot;, sans-serif; font-size: 12px; font-weight: 200;" fill="rgb(50, 49, 63)" stroke="none" stroke-width="1px">4</text><text x="0" y="150.8" dx="0em" dy="0.3em" style="text-anchor: end; visibility: inherit; font-family: &quot;Helvetica Neue&quot;, sans-serif; font-size: 12px; font-weight: 200;" fill="rgb(50, 49, 63)" stroke="none" stroke-width="1px">5</text><text x="0" y="113.10000000000002" dx="0em" dy="0.3em" style="text-anchor: end; visibility: inherit; font-family: &quot;Helvetica Neue&quot;, sans-serif; font-size: 12px; font-weight: 200;" fill="rgb(50, 49, 63)" stroke="none" stroke-width="1px">6</text><text x="0" y="75.39999999999998" dx="0em" dy="0.3em" style="text-anchor: end; visibility: inherit; font-family: &quot;Helvetica Neue&quot;, sans-serif; font-size: 12px; font-weight: 200;" fill="rgb(50, 49, 63)" stroke="none" stroke-width="1px">7</text><text x="0" y="37.69999999999999" dx="0em" dy="0.3em" style="text-anchor: end; visibility: inherit; font-family: &quot;Helvetica Neue&quot;, sans-serif; font-size: 12px; font-weight: 200;" fill="rgb(50, 49, 63)" stroke="none" stroke-width="1px">8</text><text x="0" y="0" dx="0em" dy="0.3em" style="text-anchor: end; visibility: hidden; font-family: &quot;Helvetica Neue&quot;, sans-serif; font-size: 12px; font-weight: 200;" fill="rgb(50, 49, 63)" stroke="none" stroke-width="1px">9</text></g><line x1="31.59375" y1="0" x2="31.59375" y2="377" fill="rgb(0, 0, 0)" stroke="rgb(204, 204, 204)" stroke-width="1px"></line></g></g><g transform="translate(31, 0)" clip-path="url(#clip_0)"><clipPath id="clip_0"><rect width="1291" height="376"></rect></clipPath><g><g><g><line x1="0" y1="0" x2="0" y2="377" fill="rgb(0, 0, 0)" stroke="rgb(60, 60, 60)" stroke-width="1px" opacity="0.25"></line><line x1="107.61802083333333" y1="0" x2="107.61802083333333" y2="377" fill="rgb(0, 0, 0)" stroke="rgb(60, 60, 60)" stroke-width="1px" opacity="0.25"></line><line x1="215.23604166666667" y1="0" x2="215.23604166666667" y2="377" fill="rgb(0, 0, 0)" stroke="rgb(60, 60, 60)" stroke-width="1px" opacity="0.25"></line><line x1="322.8540625" y1="0" x2="322.8540625" y2="377" fill="rgb(0, 0, 0)" stroke="rgb(60, 60, 60)" stroke-width="1px" opacity="0.25"></line><line x1="430.47208333333333" y1="0" x2="430.47208333333333" y2="377" fill="rgb(0, 0, 0)" stroke="rgb(60, 60, 60)" stroke-width="1px" opacity="0.25"></line><line x1="538.0901041666667" y1="0" x2="538.0901041666667" y2="377" fill="rgb(0, 0, 0)" stroke="rgb(60, 60, 60)" stroke-width="1px" opacity="0.25"></line><line x1="645.708125" y1="0" x2="645.708125" y2="377" fill="rgb(0, 0, 0)" stroke="rgb(60, 60, 60)" stroke-width="1px" opacity="0.25"></line><line x1="753.3261458333334" y1="0" x2="753.3261458333334" y2="377" fill="rgb(0, 0, 0)" stroke="rgb(60, 60, 60)" stroke-width="1px" opacity="0.25"></line><line x1="860.9441666666667" y1="0" x2="860.9441666666667" y2="377" fill="rgb(0, 0, 0)" stroke="rgb(60, 60, 60)" stroke-width="1px" opacity="0.25"></line><line x1="968.5621874999999" y1="0" x2="968.5621874999999" y2="377" fill="rgb(0, 0, 0)" stroke="rgb(60, 60, 60)" stroke-width="1px" opacity="0.25"></line><line x1="1076.1802083333334" y1="0" x2="1076.1802083333334" y2="377" fill="rgb(0, 0, 0)" stroke="rgb(60, 60, 60)" stroke-width="1px" opacity="0.25"></line><line x1="1183.7982291666667" y1="0" x2="1183.7982291666667" y2="377" fill="rgb(0, 0, 0)" stroke="rgb(60, 60, 60)" stroke-width="1px" opacity="0.25"></line><line x1="1291.41625" y1="0" x2="1291.41625" y2="377" fill="rgb(0, 0, 0)" stroke="rgb(60, 60, 60)" stroke-width="1px" opacity="0.25"></line></g><g><line x1="0" y1="377" x2="1291.41625" y2="377" fill="rgb(0, 0, 0)" stroke="rgb(60, 60, 60)" stroke-width="1px" opacity="0.25"></line><line x1="0" y1="339.3" x2="1291.41625" y2="339.3" fill="rgb(0, 0, 0)" stroke="rgb(60, 60, 60)" stroke-width="1px" opacity="0.25"></line><line x1="0" y1="301.6" x2="1291.41625" y2="301.6" fill="rgb(0, 0, 0)" stroke="rgb(60, 60, 60)" stroke-width="1px" opacity="0.25"></line><line x1="0" y1="263.9" x2="1291.41625" y2="263.9" fill="rgb(0, 0, 0)" stroke="rgb(60, 60, 60)" stroke-width="1px" opacity="0.25"></line><line x1="0" y1="226.2" x2="1291.41625" y2="226.2" fill="rgb(0, 0, 0)" stroke="rgb(60, 60, 60)" stroke-width="1px" opacity="0.25"></line><line x1="0" y1="188.5" x2="1291.41625" y2="188.5" fill="rgb(0, 0, 0)" stroke="rgb(60, 60, 60)" stroke-width="1px" opacity="0.25"></line><line x1="0" y1="150.8" x2="1291.41625" y2="150.8" fill="rgb(0, 0, 0)" stroke="rgb(60, 60, 60)" stroke-width="1px" opacity="0.25"></line><line x1="0" y1="113.10000000000002" x2="1291.41625" y2="113.10000000000002" fill="rgb(0, 0, 0)" stroke="rgb(60, 60, 60)" stroke-width="1px" opacity="0.25"></line><line x1="0" y1="75.39999999999998" x2="1291.41625" y2="75.39999999999998" fill="rgb(0, 0, 0)" stroke="rgb(60, 60, 60)" stroke-width="1px" opacity="0.25"></line><line x1="0" y1="37.69999999999999" x2="1291.41625" y2="37.69999999999999" fill="rgb(0, 0, 0)" stroke="rgb(60, 60, 60)" stroke-width="1px" opacity="0.25"></line><line x1="0" y1="0" x2="1291.41625" y2="0" fill="rgb(0, 0, 0)" stroke="rgb(60, 60, 60)" stroke-width="1px" opacity="0.25"></line></g></g></g><g><g><line x1="0" y1="339.3" x2="1291.41625" y2="339.3" fill="rgb(0, 0, 0)" stroke="rgb(153, 153, 153)" stroke-width="1.5px"></line></g></g><g><g><line x1="107.61802083333333" y1="0" x2="107.61802083333333" y2="377" fill="rgb(0, 0, 0)" stroke="rgb(153, 153, 153)" stroke-width="1.5px"></line></g></g><g><g><g><g><g><path stroke="rgb(0, 119, 187)" stroke-width="2px" d="M108.69420104166667,87.955185508728L111.49226958333333,204.59089584499597L112.78368583333334,236.17636248092262L116.2274625,236.99284823133667L116.65793458333333,223.68222632107017L117.30364270833334,127.14758118347498L117.73411479166666,57.882733896740774L119.02553104166665,79.94117560511637L119.67123916666665,75.1622602966329L122.89977979166666,131.66886714341925L123.54548791666666,163.6485005120497L124.621668125,134.20193012946177L126.34355645833332,171.44793526818128L127.85020875000001,133.207749236358L129.57209708333332,170.29805998509528L130.21780520833332,203.0258542199426L130.43304125,205.82761744552536L131.93969354166666,201.14580031588014L134.73776208333334,167.66429608633476L137.535830625,192.88101913304743L139.90342708333333,193.5897103050077L140.97960729166667,195.8926915439116L141.62531541666667,191.62350057999953L143.56243979166666,131.38856066323825L143.77767583333335,131.19005636200134L145.93003625,149.08314556970518L147.0062164583333,130.67430594714733L147.43668854166665,123.29047998912372L147.65192458333334,155.43839698557218L148.51286875,185.81763861353232L150.23475708333334,212.70131437805384L151.95664541666667,241.0741762523257L152.17188145833333,208.19015348074024L153.24806166666667,242.01911044316648L155.61565812499998,203.6092609013227L156.907074375,230.01768910020684L157.98325458333335,231.17457622248693L158.62896270833335,200.1067309010292L161.21179520833334,174.17355657213503L162.5032114583333,199.99086321820974L163.57939166666668,200.54021831932116L165.08604395833333,189.85822762799273L165.946988125,222.86204236597294L166.37746020833333,241.03600339399998L170.466945,223.9056609869509L171.54312520833332,204.4186009252142L171.75836125,218.1446382720881L172.83454145833332,216.64597050899556L173.91072166666666,238.21272339226627L174.34119375,261.7715578808413L176.06308208333334,228.77472179957277L176.278318125,248.24364001415702L177.78497041666665,263.07370330135154L178.64591458333334,268.5884070184296L180.58303895833333,255.0191684595539L182.30492729166667,234.31287617872135L185.74870395833335,249.62816143626304L186.60964812499998,202.15612295504363L187.90106437499998,168.391478529188L188.76200854166666,159.1806338445021L189.19248062499997,180.8453764328768L198.23239437499998,217.1459816532982L198.44763041666667,231.96772581563326L198.87810249999998,252.797041314995L200.16951875,267.30698338160266L202.106643125,250.12552852040136L202.53711520833332,259.8948476803637L202.75235125,262.37696812703234L203.398059375,254.51296048017753L204.689475625,266.04648610027084L206.6266,265.5669316629854L207.272308125,264.837276288288L207.48754416666668,268.23576517845225L209.63990458333333,266.1565893312993L213.29891729166664,272.51918240432155L213.729389375,280.3495162012828L216.74269395833332,283.97404365078523L217.81887416666666,289.387009331798L218.24934625,279.8322070486638L218.895054375,287.972948401409L220.61694270833334,286.9257865913138L221.90835895833334,279.6291305069581L222.33883104166665,279.6098793700013L222.98453916666665,287.33722896305756L224.27595541666665,292.0784612114909L225.352135625,281.7010358772088L227.50449604166667,255.9267947269326L228.79591229166667,261.57513053851403L230.08732854166666,278.4188827373807L230.94827270833335,269.5622444926634L232.23968895833335,288.15927880638446L232.67016104166666,261.22993301411634L232.88539708333334,250.79776927387812L233.31586916666666,267.05374920699654L233.74634125,268.0301027794698L233.96157729166666,264.7247749245179L235.0377575,266.5551556775577L235.25299354166668,256.897925855494L237.19011791666668,277.95792410002736L238.48153416666668,259.69689742342587L238.91200625,275.1776987195966L239.98818645833333,276.67855141406994L241.06436666666667,267.6191609158858L241.49483874999999,260.9751970633712L244.07767125,255.39919490962308L245.5843235416667,256.13689260571647L245.79955958333332,261.28194064193633L246.2300316666667,264.7116622536997L246.66050375,260.61275843200804L246.8757397916667,264.0379182542427L247.306211875,258.3477878502049L249.889044375,257.8371434456729L250.5347525,257.956317067541L251.39569666666665,266.8702986862644L252.04140479166665,265.8822749415865L252.68711291666665,260.9216327261824L253.54805708333333,264.72614810895317L253.76329312500002,273.173804114052L254.62423729166665,254.29157990800638L255.70041750000001,265.8320594417292L258.0680139583333,278.0043137471222L258.928958125,256.4629198599066L259.57466625,249.18241971303257L261.2965545833333,261.90222807865877L262.15749875,251.08336257542095L262.803206875,263.0221079373653L263.0184429166667,272.863906904715L263.2336789583333,286.5500133017646L264.74033125,285.28406814932504L266.0317475,290.8006988155823L266.46221958333336,285.7323902957428L266.677455625,292.6354787607663L267.5383997916667,288.4715991270347L268.39934395833336,280.64044546197675L269.260288125,288.7438729519297L269.4755241666667,291.9327657982498L270.33646833333336,299.03834103136L272.27359270833335,284.5159036552235L273.134536875,291.88086153956203L273.34977291666667,286.79652590448825L273.56500895833335,288.22152676877477L273.99548104166666,276.2242776030129L274.21071708333335,282.1569524069921L275.50213333333335,275.16128462912417L276.3630775,265.7717873523341L276.57831354166666,247.1261211746756L277.008785625,235.09622618876838L277.4392577083333,246.23477318121758L278.08496583333334,258.90070940872295L278.30020187499997,265.92146258962305L278.51543791666666,271.4635961759815L278.73067395833334,278.1122958367306L279.37638208333334,279.4738471046232L280.23732625,281.34461154074324L281.31350645833334,273.62483724076066L281.5287425,288.6041006262214L281.74397854166665,283.39928189844557L283.0353947916667,273.4573109050433L286.6944075,287.40873627065656L287.5553516666667,293.9806111895981L287.98582375,291.9043624784912L289.0620039583333,284.1332486001471L294.2276689583333,294.5197429375541L294.6581410416666,295.8187516425068L295.73432125,302.2666969617614L296.1647933333333,306.49567979099805L297.0257375,308.0002236814645L297.4562095833333,304.1086458665936L299.1780979166667,304.57075822966146L300.46951416666667,309.9256669176629L301.33045833333335,301.09711256343195L302.837110625,294.449642974842L303.26758270833335,279.8066945926597L304.55899895833335,280.0973238120228L304.98947104166666,287.76600801287594L305.63517916666666,293.4868390639931L306.28088729166666,292.8862648773378L308.00277562499997,289.62791011620675L308.21801166666665,288.34845134907437L308.86371979166665,269.86761386211793L310.37037208333334,278.87641813645416L311.01608020833334,278.66709807806996L312.95320458333333,279.70365329798335L313.81414875,277.926042996742L314.459856875,274.6359456461058L314.67509291666664,290.39741435059227L316.6122172916667,291.3312382030982L316.8274533333333,299.90973322919L317.6883975,297.1412534650027L318.1188695833333,303.00201087569354L318.334105625,306.6385797463367L319.1950497916667,296.2663701225823L319.4102858333333,295.778049922556L320.0559939583333,298.2890109423222L320.27123,304.66219423552883L321.9931183333333,297.86499525988415L322.8540625,281.14594255616856L323.28453458333337,291.9821237011587L323.7150066666666,289.7234799768827L323.93024270833337,288.85583068766005L325.86736708333336,286.6907360186446L326.51307520833336,298.2341657227438L328.2349635416667,289.1914057484961L328.665435625,290.64307242820837L329.74161583333336,288.8512449585806L330.81779604166667,290.868915357793L332.32444833333335,289.77661183750905L335.12251687500003,299.80174557969735L336.413933125,295.5231932342396L337.05964125,294.1227841675488L337.4901133333333,299.14101498724267L338.3510575,298.01594752670076L339.21200166666665,299.3085462200686L339.64247375,308.0032775681045L340.7186539583333,313.5691149652497L340.93389,311.27726178768256L341.14912604166665,305.9835413921057L342.871014375,308.7808052246677L344.162430625,312.71328035503075L345.02337479166664,304.2445030755367L345.2386108333333,304.1730543557743L345.453846875,292.4135076489413L347.39097125,292.23386009492657L348.4671514583333,304.1275741848837L351.4804560416667,301.5242043801243L351.910928125,291.7096484129485L356.2156489583333,292.13323689132073L356.43088500000005,283.4136857737848L357.2918291666667,286.0263717740624L357.5070652083333,284.82782187997395L357.72230125000004,285.0751621564573L361.59655000000004,277.84082882406386L362.6727302083333,263.18982481480884L364.1793825,276.64503972721843L364.39461854166666,287.33768923635927L365.68603479166666,297.67087174389155L366.11650687499997,304.6062653644883L367.19268708333334,301.8599707236292L367.62315916666665,305.3632244366647L372.7888241666667,306.17583843339924L373.21929624999996,303.13003673237233L373.6497683333333,294.6136726455788L375.3716566666667,304.4597273562491L376.0173647916667,300.2554348930204L377.73925312499995,282.12101155188583L378.38496124999995,276.4161869863683L379.030669375,254.97153555035675L381.8287379166667,276.5281330697542L383.3353902083333,289.8872213025573L384.62680645833336,297.96521898863807L385.91822270833336,296.1578395697957L386.13345875,288.9075159700802L387.424875,300.85571565342497L389.5772354166667,307.6095044166598L390.653415625,311.3272445363255L390.8686516666666,316.17109168663336L391.5143597916666,314.3337161391658L392.8057760416666,307.868631592374L393.236248125,311.8410183590537L393.88195625,313.6193688274554L394.527664375,315.10095557219574L395.17337249999997,306.7780985203194L395.38860854166666,305.4626992134337L399.26285729166665,292.12741170812154L402.49139791666664,292.7939196162731L405.71993854166664,294.42556684811774L406.36564666666663,296.02133425712503L406.5808827083334,297.3103976287837L407.01135479166663,295.4262448047635L407.2265908333334,294.14537750572185L411.74654770833337,290.4141970520629L411.96178375,292.86311074050747L413.03796395833336,298.499385833457L413.68367208333336,302.3532143376558L414.54461625,308.02943978204064L414.97508833333336,312.2604683655127L415.8360325,316.05902949557446L416.69697666666667,311.3707552193746L417.5579208333333,310.77171594137815L422.93882187500003,312.83353555580896L423.15405791666666,297.07721505392146L425.521654375,295.03031742232173L427.2435427083333,302.3821695140429L427.45877875,300.60353774854116L428.104486875,305.10335705178124L428.5349589583333,304.53789586005894L428.750195,308.37432587491446L430.687319375,309.9946669027029L432.19397166666664,288.4955015805255L435.4225122916667,300.4628970543677L435.6377483333333,304.0884119010052L436.2834564583333,306.23558448172093L440.37294125000005,306.9217384482413L441.4491214583333,312.16504304796393L441.66435750000005,311.6133876633044L442.0948295833333,314.4022100467322L443.60148187500005,309.8836571752332L445.1081341666667,307.37001095648424L445.3233702083333,301.1781327821959L447.2604945833333,309.3249643431991L448.12143875,310.38811011951503L448.5519108333333,309.68461033964957L449.412855,309.65728463449955L451.349979375,305.1615729672842L452.85663166666666,310.5921181764086L453.07186770833334,311.14201977049584L454.1480479166667,302.7051267945485L455.86993624999997,308.7103775431941L457.80706062499996,310.115266755237L458.0222966666667,305.92132311523784L458.88324083333333,304.5592959801008L459.9594210416667,306.92767138240634L460.6051291666667,312.274560533511L461.03560124999996,298.8959115901872L461.68130937499996,292.73831434245614L462.32701749999995,290.5173686074954L463.1879616666667,297.719944313034L464.90985,306.259712404528L466.6317383333333,304.2648092141859L467.4926825,306.11067047066166L468.138390625,307.5448896857898L468.3536266666667,312.8935267467976L469.6450429166667,309.3141227567005L469.86027895833337,309.888891813982L471.5821672916666,299.9665896402767L472.44311145833336,307.11175492447444L472.6583475,309.7700391163935L472.8735835416666,312.7947481626576L473.304055625,315.3412052866403L473.94976375,303.92320510843894L475.4564160416666,313.0197697812289L475.67165208333336,313.7612047108394L477.3935404166666,297.8375525708426L477.60877645833335,301.78907072278434L479.54590083333335,298.2804545672689L480.406845,302.80692543935504L480.83731708333335,307.87701220722033L481.48302520833334,305.7298843873205L482.55920541666666,308.0792196376718L482.77444145833334,309.7757155098675L483.20491354166666,311.15476166475764L483.42014958333334,313.0586512808141L483.63538562499997,313.28791390682085L484.71156583333334,307.77303227200997L487.72487041666665,312.8340768576556L489.66199479166664,314.38905538325866L490.95341104166664,307.74120199445105L492.4600633333334,311.6905116257859L492.675299375,308.929390534031L494.61242375,308.93645001904224L496.11907604166663,298.6030990401271L498.0562004166666,305.8271204757311L498.7019085416666,309.319447029091L500.2085608333333,311.98745043304984L500.6390329166667,312.2712785698618L501.4999770833333,300.7888817630795L503.6523375,294.21685575023815L503.8675735416667,300.5547546158762L504.51328166666667,301.4172778469641L505.58946187500004,300.03973199023716L506.45040604166667,302.05529261764235L509.2484745833333,300.54814807615486L509.67894666666666,305.28866403366214L509.8941827083333,297.29098689237287L511.1855989583333,304.63693195628554L511.40083500000003,299.8853105714764L511.61607104166666,310.0713175184039L512.046543125,310.4760560349529L515.0598477083333,307.2866716954651L518.9340964583333,306.60565545162814L520.2255127083333,298.09385715723784L521.732165,290.3460639166877L523.02358125,296.8241652302769L523.8845254166666,299.20832430915993L524.3149975,303.7983100819407L524.7454695833334,304.509883544911L526.0368858333334,305.76776564244574L526.6825939583333,306.122660280014L527.1130660416667,301.19311271711877L527.7587741666666,303.6067702162545L528.4044822916667,301.28722259690056L529.0501904166666,306.24918600374275L530.9873147916667,307.8821409681667L531.4177868749999,308.3435819112795L534.0006193749999,300.9351088597499L534.2158554166667,301.2896943422629L534.4310914583333,308.36623988464316L537.4443960416667,305.90369846293237L538.3053402083333,308.5868742386633L539.1662843749999,297.1149074602207L540.0272285416667,300.21120620060447L540.2424645833333,294.44141524963663L540.8881727083333,295.51144434173756L541.3186447916667,294.66902178025157L541.749116875,301.3412169664855L543.4710052083333,292.7757015114877L543.9014772916667,295.6973515776308L544.5471854166667,306.4272816388316L545.1928935416666,306.21905591061756L545.8386016666667,310.7446689603987L546.26907375,311.56867661227363L546.914781875,314.3158012399052L547.56049,316.00921566301434L551.0042666666667,319.2526263345113L552.5109189583334,315.9231702487964L553.5870991666666,316.79824410446275L553.8023352083334,309.69330574135654L554.01757125,303.18703352129864L554.4480433333333,300.7401086873794L554.663279375,301.94593135040907L555.0937514583334,298.3980971307868L555.5242235416666,293.33175118752206L556.3851677083334,300.47925625555445L557.246111875,296.64823616452657L558.3222920833333,302.1681794125297L558.7527641666667,306.8311447810208L560.2594164583334,310.0607806271955L560.6898885416666,299.16814342896015L560.9051245833333,301.4267637619964L561.9813047916666,305.4204040294643L562.8422489583334,308.21950133119554L563.9184291666667,308.4156423442038L564.34890125,303.26317165091467L564.5641372916666,303.23557465192573L566.7164977083333,304.29035409997044L566.93173375,310.2319596928962L567.7926779166667,313.0813194324141L568.4383860416666,317.122749015663L569.0840941666667,316.683824718579L569.2993302083333,318.67872477208635L569.9450383333334,318.0412806214992L570.160274375,318.18900903118276L570.5907464583333,310.69685411007777L571.6669266666667,299.4625049516652L571.8821627083333,305.78303600103226L573.388815,302.95929452389817L573.6040510416666,303.9982444489618L574.4649952083333,302.11427062777403L574.8954672916666,306.04600557105374L575.325939375,308.43907205114743L576.1868835416667,313.65463287264095L578.3392439583333,317.2682651008963L578.7697160416667,317.5067470196366L579.200188125,320.18385251662016L579.4154241666666,316.62978818595934L580.2763683333333,313.778600937012L580.9220764583333,310.79703945510573L582.6439647916667,309.40940409060113L583.5049089583333,307.46922969314926L586.5182135416667,311.69562218602584L587.3791577083333,313.4727350069051L587.8096297916667,316.4956499786952L588.88581,320.0799211509096L589.1010460416667,319.2895001582543L589.531518125,319.5202592713976L589.9619902083333,311.5465414061156L590.17722625,313.9958275874857L590.6076983333334,314.68308032515074L591.0381704166666,315.4401237735893L591.2534064583333,306.150952644929L592.76005875,304.6036116193442L593.405766875,307.40649135295797L594.4819470833334,310.7860388671413L597.0647795833333,314.23864588946435L597.92572375,315.4521703184267L598.571431875,308.8205208790672L600.7237922916667,302.3955933578236L602.0152085416667,307.0695905928268L602.2304445833333,286.9653342869552L602.6609166666667,298.88687329689697L603.3066247916666,302.25308910131474L603.9523329166667,302.98960503530515L604.1675689583333,297.3741928898812L604.3828050000001,287.0307192089272L606.5351654166667,294.83799647820666L606.7504014583333,299.4815645809929L606.9656375,304.6453055427051L607.3961095833333,308.5016292265401L609.9789420833333,310.74230116434967L610.194178125,314.8939242936854L610.4094141666667,318.42629687176253L610.6246502083334,315.14582503668134L612.3465385416666,310.67747335452833L614.2836629166667,293.81799870025515L617.942675625,289.62902186209794L620.9559802083334,300.51913382705953L621.816924375,307.6797630291993L622.0321604166667,307.2824370516428L622.4626324999999,301.3778005965405L624.1845208333333,300.90760129736975L624.6149929166667,298.408648689074L625.4759370833333,302.27423646896045L627.6282975,306.56132268457986L629.3501858333333,311.8660636374317L629.565421875,308.34822879248634L631.9330183333334,308.3233211136685L633.6549066666666,307.24652339797177L634.9463229166666,302.8868837081251L635.1615589583333,302.4891526462351L635.5920310416666,301.1994676304885L636.022503125,303.951094474377L637.0986833333334,307.31704008458956L641.188168125,312.48165075229946L642.479584375,303.04093074946013L642.6948204166666,302.55134755461455L644.8471808333334,308.0733701019826L645.2776529166666,309.8286123698558L645.9233610416667,301.3106614938739L646.1385970833333,299.16676839061756L646.3538331249999,303.9675192562829L648.7214295833332,303.9484935216958L649.3671377083333,307.6762065895113L650.6585539583333,295.31475903080184L651.7347341666667,302.5058333390133L652.16520625,302.9712714167342L652.5956783333332,307.66692914795317L653.0261504166667,307.0697971548524L654.9632747916667,300.94167611872473L655.8242189583334,303.6402401654441L656.6851631249999,308.40563982060667L657.1156352083334,310.4119982608027L657.7613433333333,314.6764431505124L659.6984677083334,315.27150310210703L659.91370375,316.5878086944361L660.7746479166667,314.7577326261961L662.0660641666667,317.38798269772315L662.49653625,314.92415333714354L665.07936875,312.32779557303354L665.2946047916666,309.706725618814L665.5098408333333,307.7021685967294L665.7250768749999,311.03516799506235L666.3707850000001,304.993118490557L667.2317291666667,308.57371967898615L668.5231454166667,305.7730250946689L668.7383814583334,310.90245523643546L669.3840895833333,312.39984907979994L671.1059779166667,315.50066420003907L672.182158125,317.1034977517434L672.82786625,320.6741678835099L673.473574375,320.5876385737148L673.6888104166666,320.52011895708364L674.9802266666666,311.1796112902887L675.41069875,296.50369025992916L676.702115,304.07777655677535L677.347823125,309.28404368493875L677.99353125,312.12316532334046L679.0697114583334,315.1442755544207L683.15919625,308.37412687325605L684.0201404166665,301.55516476264074L684.4506125,304.8138099862962L685.5267927083333,300.86862422191075L686.6029729166667,307.1270385692297L689.4010414583333,311.6402984136211L690.261985625,313.41508515798256L690.90769375,315.12913219525336L694.136234375,316.35146764751624L696.5038308333334,315.2872494592449L696.719066875,317.11435084427484L697.364775,319.1984904127424L698.65619125,318.4305704091254L700.1628435416667,316.87543634976527L700.3780795833334,317.0516478967999L700.593315625,317.7815315575799L700.8085516666666,319.04118443676236L701.0237877083332,318.7283022233749L701.23902375,318.8450470917764L702.9609120833334,319.0110746355857L707.9113410416667,319.7687336392406L708.1265770833334,307.929987189007L708.3418131249999,311.04444885780345L709.8484654166666,305.0378799422379L712.216061875,312.3414393665669L712.6465339583333,308.2769265247749L715.2293664583333,303.12473013361495L715.4446025000001,308.29264901852724L716.090310625,306.73582654461933L716.5207827083333,307.69425453702013L716.7360187500001,307.20563538050294L717.1664908333333,303.4092489050367L721.255975625,303.0480399397933L722.3321558333333,308.5476674478008L722.9778639583333,308.78374459509575L723.6235720833333,314.0032698962958L725.5606964583333,312.0882013662977L725.7759325000001,316.0010062375261L727.06734875,317.6070569919702L727.4978208333333,318.09134969992374L727.713056875,313.4921798556026L729.004473125,315.41743351513L729.65018125,315.47075498279247L730.9415975,316.3594429861088L731.3720695833333,316.19275577131384L731.8025416666667,319.3980954078643L732.4482497916667,317.00328212903787L734.3853741666667,317.2996873779705L735.461554375,316.9750144459969L735.8920264583332,317.93992478717365L736.1072624999999,319.4600573400795L736.3224985416667,321.2086553275669L738.6900949999999,322.61841715693976L740.8424554166667,321.2552683074504L742.5643437499999,319.17464097972095L746.2233564583333,316.70403000495065L747.7300087499999,319.82730191338794L747.9452447916667,319.4820478617474L748.5909529166667,312.41544616099145L750.7433133333334,317.5180414681193L752.0347295833334,316.89470288542253L752.8956737499999,310.60862756125533L753.9718539583333,309.0061374303842L754.4023260416666,305.5745249531951L754.8327981250001,300.4911400283746L755.2632702083333,306.2127302173002L755.6937422916666,310.0902909733786L756.5546864583333,311.1325703273972L756.7699224999999,309.03410902087455L757.4156306250001,310.0215961317096L758.7070468750001,305.10876111149037L759.1375189583333,299.0367152402356L759.7832270833334,299.6381425159904L761.5051154166666,300.9040398059924L761.9355875,300.0543084346437L762.1508235416666,309.18342946905994L762.3660595833334,302.35716068112316L764.0879479166666,305.6433612094132L767.3164885416666,310.29295824919984L767.746960625,315.6467823228529L768.1774327083333,317.84889561064784L768.6079047916666,318.8794034083351L769.038376875,317.7791863751212L770.97550125,316.87619550894493L771.8364454166667,308.2865871564793L774.6345139583333,300.8363988051562L775.495458125,308.4766839939206L779.5849429166667,314.2553281735092L782.8134835416666,316.800184157533L783.0287195833332,320.06551928463136L784.3201358333332,322.49914370860193L784.535371875,321.4492911057802L784.9658439583334,317.6944603274543L785.6115520833332,316.4899845308232L786.6877322916666,318.60245445645853L787.3334404166667,321.3145012764752L787.5486764583334,319.56271942309263L787.9791485416666,318.7556821432812L791.4229252083334,320.3645106713237L792.9295774999999,314.50626395227084L793.7905216666667,315.7830098443125L795.2971739583334,318.0733658071097L795.5124099999999,304.7580647418342L797.0190622916666,304.82664537605297L797.6647704166667,303.82739321575554L802.8304354166667,308.99850709549185L803.4761435416666,313.7412914926505L804.9827958333333,311.4870692261872L805.6285039583333,312.94035948805913L805.84374,304.63783621247353L806.2742120833333,299.57130475196686L806.4894481250001,301.78405158611207L807.9961004166668,299.7146491628413L808.4265725,301.20962889084365L810.7941689583333,303.3617343967506L811.8703491666668,306.92977154167585L813.8074735416667,311.29075525469835L814.237945625,315.0061138693527L814.6684177083333,314.76427315139983L815.529361875,314.4684120086683L816.17507,315.55451150583343L818.9731385416667,318.77306075362634L819.1883745833333,313.56753803174655L819.4036106249999,317.7777729849873L820.6950268749999,319.2712290418659L822.4169152083334,313.75101651504724L823.7083314583334,317.53948707792216L823.9235675,316.08150033839377L824.1388035416667,312.43317453079123L824.9997477083334,317.15623326189933L826.0759279166667,320.06426488451734L827.5825802083334,303.5221910613333L829.3044685416667,308.3607885752651L830.1654127083334,305.79135188308555L831.0263568749999,305.5007178237867L831.4568289583334,309.73928792541216L832.7482452083334,314.2789996067583L833.3939533333333,318.1515910708844L833.8244254166667,317.2552793242895L834.2548975,312.86104832520266L834.6853695833333,298.2796262599837L835.3310777083334,294.62288288699455L836.4072579166666,302.13648098007957L838.9900904166666,305.09388804254604L840.0662706249999,309.1227502215962L841.1424508333333,313.36258929664257L845.0166995833333,316.6479622202776L845.8776437500001,315.5177372168101L846.523351875,312.2045020932315L847.5995320833333,309.3428014561151L849.106184375,309.5860983088383L849.9671285416666,306.01180463521297L850.397600625,300.63612857752213L851.689016875,300.5885648446868L851.9042529166666,308.8761570762152L853.1956691666666,314.75553169074976L854.7023214583334,318.50492497219636L855.9937377083334,318.5944234701037L856.6394458333333,314.9895739920163L857.9308620833333,314.2408187822833L860.2984585416667,314.2377560517987L860.728930625,312.87747122179275L862.2355829166667,309.1451308496642L862.8812910416667,307.2856465916543L863.5269991666667,312.37857285861423L863.95747125,313.67517852857264L865.0336514583332,314.6853980855617L868.477428125,309.93149520853L868.9079002083332,313.47825835406087L869.12313625,317.9412332192618L869.9840804166666,317.0896712383961L870.1993164583332,318.22941236503925L871.060260625,318.8168791318417L871.4907327083332,318.73244390633585L872.7821489583332,316.8533915909939L872.997385,305.7503140397556L874.5040372916667,311.9560226075463L877.0868697916667,314.4410655446418L878.1630500000001,319.28471406385705L878.8087581249999,318.09351220420245L880.7458825000001,320.84978407437353L880.9611185416667,321.3323958314344L882.2525347916667,319.18025765638856L882.4677708333334,316.1975278390724L885.4810754166666,319.5122599657344L886.3420195833334,317.54160440778537L886.7724916666666,313.88775700101735L887.2029637500001,312.8608298311799L887.848671875,314.26965047658496L888.49438,306.00047972286353L890.431504375,311.8737890117443L891.722920625,312.310817343776L892.1533927083333,314.57078368829764L894.5209891666666,312.20695640901965L894.7362252083333,314.6995169512048L896.0276414583333,307.4716170425186L897.53429375,305.13449962109144L902.69995875,311.93687810522204L903.345666875,316.42595026982957L903.991375,319.48684844787795L904.4218470833333,319.9020057703011L908.9418039583333,319.7960802593799L909.5875120833334,307.79453467601365L910.4484562499999,303.89568482442996L910.6636922916667,311.1881238425034L910.8789283333334,305.37594834114657L912.1703445833334,310.3248447915646L912.8160527083332,307.52716856603223L913.2465247916667,312.54594980361696L915.1836491666667,313.2704064815202L916.0445933333334,303.7856925993537L916.6903014583334,306.86150854762644L917.7664816666667,305.3833862563148L919.4883699999999,311.50024722934813L920.3493141666667,313.7033603556219L920.7797862499999,317.5304574911155L921.2102583333334,320.22492484476317L924.0083268750001,313.69845796481457L924.4387989583333,310.67584398302847L925.0845070833334,311.69083802052387L927.6673395833334,313.24514151423006L928.52828375,317.3147623098423L929.6044639583333,318.8207351754027L930.0349360416666,317.48288826405513L932.1872964583333,316.3990523401469L932.6177685416666,318.97785971305194L933.0482406250001,319.9415865703906L935.8463091666666,320.8958007958225L937.1377254166666,322.1364329520876L939.2900858333334,318.6152423849115L940.3662660416666,317.0743831891065L941.8729183333332,313.1931084691432L942.5186264583333,314.10882179611605L942.9490985416666,306.66457387372066L947.253819375,305.2620130048049L947.4690554166667,309.76182964479045L947.6842914583333,311.8208139481253L948.7604716666667,313.64780444992226L949.19094375,318.10809337790397L950.48236,314.97845699128857L951.3433041666667,312.9650342067322L953.0651925,310.1294481992865L953.2804285416667,304.483518877038L954.35660875,308.10824987316647L954.5718447916666,308.3757145942719L955.4327889583334,308.2643758142872L957.8003854166667,313.1619966259529L959.0918016666667,314.34412587350187L960.3832179166667,314.9293583790396L961.0289260416666,316.50471080302805L964.2574666666667,305.27396550750495L965.1184108333333,308.0301297412858L966.6250631250001,311.69524805465613L967.4860072916666,312.38170584630535L968.5621874999999,310.0766816436742L969.6383677083334,306.9931536304649L970.4993118749999,314.36865207360364L970.7145479166667,316.2248095512758L971.14502,318.74227199199026L973.0821443749999,319.39318299557107L973.2973804166667,319.50992285648186L975.664976875,311.30400627278806L976.0954489583333,305.4863227976771L976.310685,305.2975025828726L977.8173372916666,310.5286664042501L978.247809375,314.9979708298223L978.4630454166667,317.47092688346964L978.6782814583333,313.18191363254226L978.8935175,316.5823397149982L979.7544616666668,318.55612719001425L980.18493375,317.8096128651026L984.9201266666668,318.3357346098735L985.5658347916667,320.75549987918816L988.579139375,319.6241726587217L989.6553195833333,312.4746691173316L989.870555625,311.8024943987131L990.3010277083333,309.171920130229L992.0229160416667,308.05915749643805L993.09909625,310.65125922068694L994.6057485416667,310.84568844619236L1000.6323577083334,313.68952307214045L1002.13901,316.5840652698857L1004.5066064583334,317.00897511449944L1005.5827866666666,317.8149159324616L1007.5199110416667,318.140609408167L1007.7351470833333,311.41636306330383L1009.8875075000001,310.5240137355615L1010.1027435416667,310.88631953341303L1010.3179795833333,309.3550980898293L1010.7484516666666,314.69369007900667L1011.1789237500001,313.1384685787875L1011.6093958333333,316.16782004793396L1011.8246318749999,318.92215274906107L1012.0398679166666,321.11762897572487L1012.4703400000001,321.55572167278274L1016.3445887500001,318.1141183140334L1017.4207689583334,314.6795086862121L1018.4969491666666,315.45752961882795L1019.1426572916666,318.42688031702545L1019.7883654166666,319.1877329522926L1020.864545625,321.93532248345366L1023.2321420833333,318.8670357132396L1025.1692664583334,310.25640920069463L1025.8149745833334,314.0285776499906L1026.0302106249999,314.24644601607315L1027.967335,315.0783398071766L1029.2587512500002,315.5053730916881L1032.487291875,316.69349126767537L1032.7025279166667,318.8831971213306L1033.9939441666666,317.92844329625876L1034.8548883333333,319.40628685087273L1035.5005964583333,321.2296927817482L1036.7920127083332,322.6485480956923L1037.2224847916666,322.20847010688135L1039.1596091666665,320.9787872223624L1040.0205533333333,320.6396058719497L1041.3119695833334,320.16314960963376L1042.3881497916666,317.68964607147484L1043.6795660416667,320.23944055097166L1044.5405102083332,314.168336021047L1045.6166904166666,311.3548388142235L1047.1233427083332,307.2446730744151L1047.984286875,306.76818040199925L1049.92141125,307.9375476335755L1050.567119375,309.0869969496292L1053.149951875,314.3913190298773L1054.6566041666667,314.23999703726156L1055.3023122916668,313.39196604729284L1055.732784375,305.34784657860155L1055.9480204166666,301.12549473228665L1056.8089645833334,302.5061053429998L1057.024200625,308.36266879766924L1057.2394366666667,309.8159334691151L1059.8222691666667,313.8513078231683L1061.1136854166666,317.16824746603197L1061.3289214583333,318.1864199261333L1061.7593935416667,318.6341096937934L1062.8355737499999,319.6365295398402L1063.0508097916668,319.4645447938542L1063.6965179166666,319.7617476444781L1064.9879341666667,320.1031235195005L1065.8488783333335,318.58825479846024L1067.355530625,319.84248349249856L1069.5078910416667,319.82006052482427L1070.7993072916668,316.53838128416714L1071.6602514583333,318.44561369996654L1072.3059595833333,319.9155468939625L1074.0278479166666,319.0561766337683L1074.45832,314.9340854758817L1077.2563885416666,318.17587855546464L1078.1173327083334,318.4455148976373L1078.3325687499998,316.30031111725134L1082.4220535416666,314.9568739490984L1082.6372895833333,318.2110779116915L1083.2829977083334,320.3873821991901L1084.78965,319.61975123990896L1085.2201220833333,318.5035278374512L1086.9420104166666,318.32337290135376L1087.3724825,319.8846320646247L1087.5877185416666,318.3617554579521L1090.3857870833333,310.9090959831682L1090.8162591666667,309.74126221922677L1091.0314952083334,311.34716194503096L1092.9686195833333,315.6642624749695L1093.6143277083333,314.36503710591523L1094.0447997916665,312.92675516750654L1095.9819241666667,314.84376084176444L1096.6276322916667,319.3737853930458L1097.058104375,319.8583435348311L1097.4885764583332,319.47379218409293L1100.0714089583332,317.7448367766728L1103.7304216666666,316.9940050108546L1104.806601875,317.8123749436923L1106.9589622916667,318.99438808691434L1108.2503785416666,318.87164990622955L1109.7570308333331,319.3724157412002L1111.0484470833333,313.856869080016L1111.4789191666666,307.7911993946725L1112.3398633333334,294.8155039099511L1113.846515625,302.02960376189094L1114.0617516666666,310.7793581238147L1114.2769877083333,309.91225382749775L1116.4293481250002,313.14958548703515L1119.8731247916667,313.7310591945572L1120.949305,315.95518203792113L1122.0254852083333,318.1858485067912L1123.1016654166667,320.0624051955359L1123.3169014583334,320.15747623843055L1123.7473735416665,319.1774395299083L1124.3930816666666,318.28505835963045L1126.5454420833332,318.8183417989776L1127.40638625,320.8564466246346L1127.6216222916667,315.28002981712694L1128.9130385416665,318.6987665341513L1129.7739827083333,318.5740681723485L1129.98921875,322.0844682774383L1131.7111070833332,316.42912364014614L1132.3568152083333,318.2532582331218L1132.57205125,316.4680596428226L1133.0025233333333,318.27279033524457L1133.6482314583334,318.46978386081855L1133.8634675,319.48009066604135L1134.0787035416665,319.3700522829447L1134.2939395833332,320.32833519991357L1135.15488375,319.8022714913852L1135.5853558333333,321.28542391186755L1136.2310639583334,310.5482826025832L1136.4463,313.0424182195394L1136.6615360416667,310.0057483398276L1136.8767720833332,308.8600006963824L1137.3072441666668,309.05163189566224L1137.9529522916666,310.3731595706706L1138.1681883333333,314.9190701598981L1139.4596045833332,316.13386849135514L1140.7510208333333,309.4890828631541L1141.1814929166667,312.35010619295963L1141.8272010416667,313.1336319239934L1144.4100335416667,314.28719325017926L1146.131921875,317.83286444039345L1146.3471579166667,318.0857372694683L1146.5623939583334,318.6529344709797L1147.8538102083335,320.4312161405136L1149.3604625,320.8571316027194L1150.4366427083335,320.21604499003587L1151.943295,319.8347313069183L1152.8042391666668,320.06755485671033L1154.7413635416667,313.6783024653034L1156.0327797916666,314.80368995095705L1156.463251875,314.7079791654671L1157.10896,310.819147674413L1158.6156122916666,311.93644668112483L1159.9070285416667,311.1513574162143L1160.5527366666665,307.86333734029637L1160.9832087500001,305.4692650713569L1161.1984447916666,307.59667859781064L1163.1355691666665,314.32935946648286L1165.2879295833334,318.2957841447888L1165.503165625,321.24661952685705L1167.2250539583333,320.72591292399994L1169.8078864583333,321.7251812955071L1170.4535945833334,316.6992107236582L1171.0993027083334,319.5647072711109L1173.89737125,319.9036474823069L1175.6192595833334,320.57900629634327L1177.3411479166666,320.0348243510405L1177.5563839583333,320.64646256063463L1178.2020920833334,321.13924955543325L1178.6325641666665,320.30949158201486L1178.8478002083334,320.3760055204026L1181.8611047916668,318.9780597436304L1183.1525210416667,320.0507567660734L1183.582993125,319.20118028025183L1185.9505895833333,319.1354999309799" style="fill: none;" fill="none"></path></g></g></g></g><g opacity="0.2"><g><g><g><path stroke="rgb(0, 119, 187)" stroke-width="2px" d="M108.69420104166667,87.95518550872805L111.49226958333333,274.57232204675677L112.78368583333334,266.4984104514122L116.2274625,237.95303547382355L116.65793458333333,206.30387835502626L117.30364270833334,-6.394585514068581L117.73411479166666,-41.1671059608459L119.02553104166665,112.1025953769684L119.67123916666665,68.11428847312925L122.89977979166666,215.57459280490875L123.54548791666666,211.32789764404296L124.621668125,90.19232149124144L126.34355645833332,227.19532830715178L127.85020875000001,75.92238669395448L129.57209708333332,225.88992784023284L130.21780520833332,252.0944633960724L130.43304125,210.02907667160034L131.93969354166666,194.1242633342743L134.73776208333334,117.44714031219485L137.535830625,230.7037987947464L139.90342708333333,194.65270819664002L140.97960729166667,199.34708762168884L141.62531541666667,185.21979842185976L143.56243979166666,41.03686432838441L143.77767583333335,130.89230132102966L145.93003625,175.92270307540895L147.0062164583333,103.0610936164856L147.43668854166665,112.21475238800048L147.65192458333334,203.66024286746978L148.51286875,231.38648426532745L150.23475708333334,253.0268191099167L151.95664541666667,283.63346341848376L152.17188145833333,158.86412324905393L153.24806166666667,292.76254346370695L155.61565812499998,145.99448823928833L156.907074375,269.63033071756365L157.98325458333335,232.90990688800812L158.62896270833335,153.50496320724488L161.21179520833334,135.2737952232361L162.5032114583333,238.7168231010437L163.57939166666668,201.36425096988677L165.08604395833333,173.83524160385133L165.946988125,272.3677644491196L166.37746020833333,268.29694492816924L170.466945,198.21014738082886L171.54312520833332,175.18801083564756L171.75836125,238.7336942911148L172.83454145833332,214.3979688644409L173.91072166666666,270.56285271644595L174.34119375,297.10980961322787L176.06308208333334,179.2794676780701L176.278318125,277.4470173358917L177.78497041666665,285.31879823207856L178.64591458333334,276.8604625940323L180.58303895833333,234.6653106212616L182.30492729166667,203.25343775749207L185.74870395833335,272.60108932256696L186.60964812499998,130.94806523323058L187.90106437499998,117.74451189041139L188.76200854166666,145.36436681747438L189.19248062499997,213.34249031543732L198.23239437499998,271.5968894839287L198.44763041666667,254.20034205913544L198.87810249999998,284.0410145640373L200.16951875,289.071896481514L202.106643125,224.35334622859955L202.53711520833332,274.54882642030714L202.75235125,266.1001487970352L203.398059375,242.71694900989533L204.689475625,283.34677453041076L206.6266,264.84760000705717L207.272308125,263.74279322624204L207.48754416666668,273.3334985136986L209.63990458333333,263.0378255605698L213.29891729166664,282.063072013855L213.729389375,292.0950168967247L216.74269395833332,289.41083482503893L217.81887416666666,297.5064578533173L218.24934625,265.5000036239624L218.895054375,300.18406043052676L220.61694270833334,285.3550438761711L221.90835895833334,268.6841463804245L222.33883104166665,279.58100266456603L222.98453916666665,298.92825335264206L224.27595541666665,299.1903095841408L225.352135625,266.13489787578584L227.50449604166667,217.26543300151826L228.79591229166667,270.04763425588607L230.08732854166666,303.68451103568077L230.94827270833335,256.27728712558746L232.23968895833335,316.0548302769661L232.67016104166666,220.8359143257141L232.88539708333334,235.14952366352082L233.31586916666666,291.4377191066742L233.74634125,269.4946331381798L233.96157729166666,259.7667831420898L235.0377575,269.3007268071175L235.25299354166668,242.41208112239838L237.19011791666668,309.5479214668274L238.48153416666668,232.30535740852355L238.91200625,298.3989006638527L239.98818645833333,278.92983045578L241.06436666666667,254.0300751686096L241.49483874999999,251.00925128459932L244.07767125,247.03519167900086L245.5843235416667,257.24343914985656L245.79955958333332,268.99951269626615L246.2300316666667,269.85624467134477L246.66050375,254.46440269947053L246.8757397916667,269.1756579875946L247.306211875,249.81259224414825L249.889044375,257.0711768388748L250.5347525,258.1350775003433L251.39569666666665,280.2412711143494L252.04140479166665,264.4002393245697L252.68711291666665,253.48066940307618L253.54805708333333,270.4329211831093L253.76329312500002,285.84528812170026L254.62423729166665,225.968243598938L255.70041750000001,283.1427787423134L258.0680139583333,296.2626952052116L258.928958125,224.15082902908324L259.57466625,238.26166949272155L261.2965545833333,280.9819406270981L262.15749875,234.85506432056428L262.803206875,280.9302259802818L263.0184429166667,287.62660535573957L263.2336789583333,307.0791728973389L264.74033125,283.38515042066575L266.0317475,299.0756448149681L266.46221958333336,278.1299275159836L266.677455625,302.99011145830156L267.5383997916667,282.22577967643736L268.39934395833336,268.8937149643898L269.260288125,300.8990141868591L269.4755241666667,296.7161050677299L270.33646833333336,309.6967038810253L272.27359270833335,262.7322475910187L273.134536875,302.9282983660698L273.34977291666667,279.17002245187757L273.56500895833335,290.3590280652046L273.99548104166666,258.22840385437013L274.21071708333335,291.0559646129608L275.50213333333335,264.66778296232224L276.3630775,251.68754143714904L276.57831354166666,219.15762190818788L277.008785625,217.05138370990753L277.4392577083333,262.9425936698914L278.08496583333334,277.8996137499809L278.30020187499997,276.45259236097337L278.51543791666666,279.7767965555191L278.73067395833334,288.08534532785416L279.37638208333334,281.5161740064621L280.23732625,284.1507581949234L281.31350645833334,262.04517579078674L281.5287425,311.07299570441245L281.74397854166665,275.5920538067818L283.0353947916667,258.5443544149399L286.6944075,308.33587431907654L287.5553516666667,303.83842356801034L287.98582375,288.7899894118309L289.0620039583333,272.4765777826309L294.2276689583333,310.09948444366455L294.6581410416666,297.76726469993594L295.73432125,311.93861494064333L296.1647933333333,312.839154034853L297.0257375,310.25703951716423L297.4562095833333,298.2712791442871L299.1780979166667,305.2639267742634L300.46951416666667,317.95802994966505L301.33045833333335,287.8542810320854L302.837110625,284.4784385919571L303.26758270833335,257.8422720193863L304.55899895833335,280.5332676410675L304.98947104166666,299.2690343141556L305.63517916666666,302.06808564066887L306.28088729166666,291.9854035973549L308.00277562499997,284.7403779745102L308.21801166666665,286.4292631983757L308.86371979166665,242.14635763168334L310.37037208333334,292.38962454795836L311.01608020833334,278.3531179904938L312.95320458333333,281.2584861278534L313.81414875,275.2596275448799L314.459856875,269.70079962015154L314.67509291666664,314.03961740732194L316.6122172916667,292.7319739818573L316.8274533333333,312.7774757683277L317.6883975,292.98853381872175L318.1188695833333,311.7931469917297L318.334105625,312.0934330523014L319.1950497916667,280.7080556869507L319.4102858333333,295.0455696225166L320.0559939583333,302.05545247197153L320.27123,314.22196917533876L321.9931183333333,287.6691967964172L322.8540625,256.0673635005951L323.28453458333337,308.23639541864395L323.7150066666666,286.3355143904686L323.93024270833337,287.55435675382614L325.86736708333336,283.44309401512146L326.51307520833336,315.5493102788925L328.2349635416667,275.62726578712466L328.665435625,292.8205724477768L329.74161583333336,286.16350375413896L330.81779604166667,293.89542095661164L332.32444833333335,288.1381565570831L335.12251687500003,314.83944619297984L336.413933125,289.10536471605303L337.05964125,292.0221705675125L337.4901133333333,306.6683612167835L338.3510575,296.3283463358879L339.21200166666665,301.2474442601204L339.64247375,321.0453745901585L340.7186539583333,321.91787106096746L340.93389,307.8394820213318L341.14912604166665,298.0429607987404L342.871014375,312.97670097351073L344.162430625,318.6119930505753L345.02337479166664,291.54133715629575L345.2386108333333,304.06588127613065L345.453846875,274.7741875886917L347.39097125,291.9643887639046L348.4671514583333,321.9681453198194L351.4804560416667,297.6191496729851L351.910928125,276.98781446218493L356.2156489583333,292.7686196088791L356.43088500000005,270.3343590974808L357.2918291666667,289.9454007744789L357.5070652083333,283.02999703884126L357.72230125000004,285.4461725711823L361.59655000000004,266.98932882547376L362.6727302083333,241.2133188009262L364.1793825,296.8278620958328L364.39461854166666,303.37666350007055L365.68603479166666,313.1706455051899L366.11650687499997,315.00935579538344L367.19268708333334,297.74052876234055L367.62315916666665,310.61810500621795L372.7888241666667,307.3947594285011L373.21929624999996,298.5613341808319L373.6497683333333,281.8391265153885L375.3716566666667,319.2288094222546L376.0173647916667,293.9489961981773L377.73925312499995,254.91937654018403L378.38496124999995,267.85895013809204L379.030669375,222.80455839633942L381.8287379166667,308.86302934885026L383.3353902083333,309.925853651762L384.62680645833336,310.0822155177593L385.91822270833336,293.4467704415321L386.13345875,278.03203057050706L387.424875,318.778015178442L389.5772354166667,317.740187561512L390.653415625,316.90385471582414L390.8686516666666,323.4368624120951L391.5143597916666,311.5776528179646L392.8057760416666,298.1710047721863L393.236248125,317.79959850907323L393.88195625,316.2868945300579L394.527664375,317.32333568930625L395.17337249999997,294.29381294250487L395.38860854166666,303.48960025310515L399.26285729166665,272.1244804501533L402.49139791666664,293.7936814785004L405.71993854166664,296.8730376958847L406.36564666666663,298.414985370636L406.5808827083334,299.24399268627167L407.01135479166663,292.6000155687332L407.2265908333334,292.22407655715944L411.74654770833337,284.8174263715744L411.96178375,296.5364812731743L413.03796395833336,306.9537984728813L413.68367208333336,308.1339570939541L414.54461625,316.54377794861796L414.97508833333336,318.60701124072074L415.8360325,321.75687119066714L416.69697666666667,304.3383438050747L417.5579208333333,309.87315702438354L422.93882187500003,315.92626497745516L423.15405791666666,273.44273430109024L425.521654375,291.95997097492216L427.2435427083333,313.4099476516247L427.45877875,297.9355901002884L428.104486875,311.8530860066414L428.5349589583333,303.6897040724754L428.750195,314.12897089719775L430.687319375,312.42517844438555L432.19397166666664,256.2467535972595L435.4225122916667,318.413990265131L435.6377483333333,309.5266841709614L436.2834564583333,309.45634335279465L440.37294125000005,307.9509693980217L441.4491214583333,320.02999994754794L441.66435750000005,310.78590458631516L442.0948295833333,318.5854436218739L443.60148187500005,303.1058278679848L445.1081341666667,303.5995416283607L445.3233702083333,291.8903155207634L447.2604945833333,321.5452116847038L448.12143875,311.98282878398896L448.5519108333333,308.6293606698513L449.412855,309.6162960767746L451.349979375,298.4180054664612L452.85663166666666,318.73793599009514L453.07186770833334,311.96687216162684L454.1480479166667,290.04978733062745L455.86993624999997,317.71825366616247L457.80706062499996,312.2226005733013L458.0222966666667,299.6304076552391L458.88324083333333,302.51625527739526L459.9594210416667,310.4802344858646L460.6051291666667,320.29489426016806L461.03560124999996,278.82793817520144L461.68130937499996,283.50191847085955L462.32701749999995,287.18595000505445L463.1879616666667,308.5238078713417L464.90985,319.069364541769L466.6317383333333,301.2724544286728L467.4926825,308.87946235537527L468.138390625,309.696218508482L468.3536266666667,320.91648233830927L469.6450429166667,303.94501677155495L469.86027895833337,310.7510453999042L471.5821672916666,285.0831363797188L472.44311145833336,317.82950285077095L472.6583475,313.75746540427207L472.8735835416666,317.3318117320538L473.304055625,319.1608909726143L473.94976375,286.79620484113696L475.4564160416666,326.66461679041385L475.67165208333336,314.87335710525514L477.3935404166666,273.95207436084746L477.60877645833335,307.71634795069696L479.54590083333335,293.0175303339958L480.406845,309.5966317474842L480.83731708333335,315.4821423590183L481.48302520833334,302.5091926574707L482.55920541666666,311.60322251319883L482.77444145833334,312.320459318161L483.20491354166666,313.2233308970928L483.42014958333334,315.9144857048988L483.63538562499997,313.6318078458309L484.71156583333334,299.5007098197937L487.72487041666665,320.425643736124L489.66199479166664,316.7215231716633L490.95341104166664,297.76942191123965L492.4600633333334,317.61447607278825L492.675299375,304.78770889639856L494.61242375,308.94703924655914L496.11907604166663,283.10307257175447L498.0562004166666,316.663152629137L498.7019085416666,314.55793685913085L500.2085608333333,315.9894555389881L500.6390329166667,312.69702077507975L501.4999770833333,283.56528655290606L503.6523375,284.3588167309761L503.8675735416667,310.0616029143333L504.51328166666667,302.71106269359586L505.58946187500004,297.9734132051468L506.45040604166667,305.07863355875014L509.2484745833333,298.2874312639236L509.67894666666666,312.39943796992304L509.8941827083333,285.294471180439L511.1855989583333,315.65584955215456L511.40083500000003,292.7578784942627L511.61607104166666,325.3503279387951L512.046543125,311.0831638097763L515.0598477083333,302.5025951862335L518.9340964583333,305.5841310858726L520.2255127083333,285.32615971565247L521.732165,278.7243740558624L523.02358125,306.5413172006607L523.8845254166666,302.7845629274845L524.3149975,310.68328874111177L524.7454695833334,305.5772437393665L526.0368858333334,307.6545887887478L526.6825939583333,306.6550022363663L527.1130660416667,293.798791372776L527.7587741666666,307.2272564649582L528.4044822916667,297.80790116786955L529.0501904166666,313.69213111400603L530.9873147916667,310.33157341480256L531.4177868749999,309.0357433259487L534.0006193749999,289.8223992824554L534.2158554166667,301.8215725660324L534.4310914583333,318.9810581982136L537.4443960416667,302.20988633036615L538.3053402083333,312.6116379022598L539.1662843749999,279.90695729255674L540.0272285416667,304.8556543111801L540.2424645833333,285.78672882318494L540.8881727083333,297.1164879798889L541.3186447916667,293.4053879380226L541.749116875,311.34950974583626L543.4710052083333,279.9274283289909L543.9014772916667,300.0798266768455L544.5471854166667,322.5221767306328L545.1928935416666,305.90671731829644L545.8386016666667,317.5330885350704L546.26907375,312.80468809008596L546.914781875,318.4364881813526L547.56049,318.549337297678L551.0042666666667,324.1177423417568L552.5109189583334,310.928986120224L553.5870991666666,318.1108548879623L553.8023352083334,299.03589819669725L554.01757125,293.4276251912117L554.4480433333333,297.0697214365006L554.663279375,303.75466534495354L555.0937514583334,293.07634580135345L555.5242235416666,285.73223227262497L556.3851677083334,311.2005138576031L557.246111875,290.90170602798463L558.3222920833333,310.4480942845345L558.7527641666667,313.8255928337574L560.2594164583334,314.9052343964577L560.6898885416666,282.82918763160706L560.9051245833333,304.8146942615509L561.9813047916666,311.410864430666L562.8422489583334,312.4181472837925L563.9184291666667,308.70985386371615L564.34890125,295.534465610981L564.5641372916666,303.1941791534424L566.7164977083333,305.8725232720375L566.93173375,319.1443680822849L567.7926779166667,317.3553590416908L568.4383860416666,323.18489339053633L569.0840941666667,316.025438272953L569.2993302083333,321.6710748523474L569.9450383333334,317.08511439561846L570.160274375,318.4106016457081L570.5907464583333,299.45862172842027L571.6669266666667,282.6109812140465L571.8821627083333,315.2638325750828L573.388815,298.723682308197L573.6040510416666,305.5566693365574L574.4649952083333,299.28830989599226L574.8954672916666,311.94360798597336L575.325939375,312.0286717712879L576.1868835416667,321.4779741048813L578.3392439583333,322.68871344327925L578.7697160416667,317.86446989774703L579.200188125,324.19951076209543L579.4154241666666,311.2986916899681L580.2763683333333,309.501820063591L580.9220764583333,306.3246972322464L582.6439647916667,307.3279510438442L583.5049089583333,304.5589680969715L586.5182135416667,318.03521092534066L587.3791577083333,316.13840423822404L587.8096297916667,321.03002243638036L588.88581,325.45632790923116L589.1010460416667,318.1038686692715L589.531518125,319.8663979411125L589.9619902083333,299.58596460819246L590.17722625,317.66975685954094L590.6076983333334,315.7139594316483L591.0381704166666,316.5756889462471L591.2534064583333,292.2171959519386L592.76005875,302.282600080967L593.405766875,311.6108109533787L594.4819470833334,315.8553601384163L597.0647795833333,319.41755642294885L597.92572375,317.2724569618702L598.571431875,298.8730467200279L600.7237922916667,292.75820207595825L602.0152085416667,314.08058644533156L602.2304445833333,256.8089498281479L602.6609166666667,316.7691818118095L603.3066247916666,307.30241280794144L603.9523329166667,304.09437893629075L604.1675689583333,288.9510746717453L604.3828050000001,271.5155086874962L606.5351654166667,306.5489123821259L606.7504014583333,306.4469167351723L606.9656375,312.39091698527335L607.3961095833333,314.28611475229263L609.9789420833333,314.103309071064L610.194178125,321.121358987689L610.4094141666667,323.72485573887826L610.6246502083334,310.22511728405954L612.3465385416666,303.97494583129884L614.2836629166667,268.52878671884537L617.942675625,283.3455566048622L620.9559802083334,316.8543017745018L621.816924375,318.4207068324089L622.0321604166667,306.6864480853081L622.4626324999999,292.520845913887L624.1845208333333,300.2023023486137L624.6149929166667,294.6602197766304L625.4759370833333,308.0726181387901L627.6282975,312.991952008009L629.3501858333333,319.8231750667095L629.565421875,303.0714765250683L631.9330183333334,308.2859595954418L633.6549066666666,305.63132682442665L634.9463229166666,296.3474241733551L635.1615589583333,301.8925560534L635.5920310416666,299.2649401068687L636.022503125,308.0785347402096L637.0986833333334,312.36595849990846L641.188168125,320.2285667538643L642.479584375,288.8798507452011L642.6948204166666,301.81697276234627L644.8471808333334,316.3564039230347L645.2776529166666,312.46147577166556L645.9233610416667,288.5337351799011L646.1385970833333,295.95092873573304L646.3538331249999,311.16864555478094L648.7214295833332,303.91995491981504L649.3671377083333,313.2677761912346L650.6585539583333,276.7725876927376L651.7347341666667,313.2924448013306L652.16520625,303.6694285333157L652.5956783333332,314.71041574478147L653.0261504166667,306.1740991652012L654.9632747916667,291.7494945645332L655.8242189583334,307.6880862355232L656.6851631249999,315.5537393033504L657.1156352083334,313.4215359210968L657.7613433333333,321.0731104850769L659.6984677083334,316.16409302949904L659.91370375,318.5622670829296L660.7746479166667,312.0126185238361L662.0660641666667,321.33335780501363L662.49653625,311.2284092962742L665.07936875,308.43325892686846L665.2946047916666,305.77512068748473L665.5098408333333,304.69533306360245L665.7250768749999,316.03466709256173L666.3707850000001,295.930044233799L667.2317291666667,313.9446214616299L668.5231454166667,301.57198321819305L668.7383814583334,318.59660044908526L669.3840895833333,314.64593984484674L671.1059779166667,320.1518868803978L672.182158125,319.5077480792999L672.82786625,326.0301730811596L673.473574375,320.4578446090221L673.6888104166666,320.41883953213693L674.9802266666666,297.16884979009626L675.41069875,274.4898087143898L676.702115,315.4389060020447L677.347823125,317.0934443771839L677.99353125,316.3818477809429L679.0697114583334,319.67594090104103L683.15919625,298.2189038515091L684.0201404166665,291.32672159671785L684.4506125,309.7017778217793L685.5267927083333,294.95084557533266L686.6029729166667,316.51466009020805L689.4010414583333,318.4101881802082L690.261985625,316.0772652745247L690.90769375,317.7002027511597L694.136234375,318.18497082591057L696.5038308333334,313.69092217683794L696.719066875,319.8550029218197L697.364775,322.3246997654438L698.65619125,317.2786904036999L700.1628435416667,314.542735260725L700.3780795833334,317.3159652173519L700.593315625,318.8763570487499L700.8085516666666,320.9306637555361L701.0237877083332,318.2589789032936L701.23902375,319.02016439437864L702.9609120833334,319.26011595129967L707.9113410416667,320.9052221447229L708.1265770833334,290.1718675136566L708.3418131249999,315.71614136099817L709.8484654166666,296.02802656888963L712.216061875,323.29677850306035L712.6465339583333,302.1801572620869L715.2293664583333,295.396435546875L715.4446025000001,316.04452734589574L716.090310625,304.4005928337574L716.5207827083333,309.1318965256214L716.7360187500001,306.47270664572716L717.1664908333333,297.7146691918373L721.255975625,302.5062264919281L722.3321558333333,316.79710870981216L722.9778639583333,309.13786031603814L723.6235720833333,321.8325578480959L725.5606964583333,309.2155985713005L725.7759325000001,321.87021354436877L727.06734875,320.0161331236362L727.4978208333333,318.81778876185416L727.713056875,306.59342508912084L729.004473125,318.30531400442123L729.65018125,315.5507371842861L730.9415975,317.69247499108315L731.3720695833333,315.9427249491215L731.8025416666667,324.20610486269L732.4482497916667,313.41106221079826L734.3853741666667,317.74429525136946L735.461554375,316.4880050480366L735.8920264583332,319.38729029893875L736.1072624999999,321.74025616943834L736.3224985416667,323.8315523087978L738.6900949999999,324.7330599009991L740.8424554166667,319.2105450332165L742.5643437499999,316.05369998812677L746.2233564583333,312.9981135427952L747.7300087499999,324.5122097760439L747.9452447916667,318.9641667842865L748.5909529166667,301.81554360985757L750.7433133333334,325.1719344288111L752.0347295833334,315.95969501137733L752.8956737499999,301.1795145750046L753.9718539583333,306.60240223407743L754.4023260416666,300.4271062374115L754.8327981250001,292.8660626411438L755.2632702083333,314.79511550068855L755.6937422916666,315.90663210749625L756.5546864583333,312.69598935842515L756.7699224999999,305.88641706109047L757.4156306250001,311.5028267979622L758.7070468750001,297.7395085811615L759.1375189583333,289.92864643335344L759.7832270833334,300.54028342962266L761.5051154166666,302.8028857409954L761.9355875,298.7797113776207L762.1508235416666,322.87711102068425L762.3660595833334,292.117757499218L764.0879479166666,310.57266200184824L767.3164885416666,317.2673538088799L767.746960625,323.67751843333247L768.1774327083333,321.15206554234027L768.6079047916666,320.42516510486604L769.038376875,316.1288608253002L770.97550125,315.5217092096806L771.8364454166667,295.40217462778094L774.6345139583333,289.66111627817156L775.495458125,319.9371117770672L779.5849429166667,322.9232944428921L782.8134835416666,320.61746813356876L783.0287195833332,324.96352197527887L784.3201358333332,326.14958034455776L784.535371875,319.87451220154765L784.9658439583334,312.0622141599655L785.6115520833332,314.68327083587644L786.6877322916666,321.77115934491155L787.3334404166667,325.38257150650026L787.5486764583334,316.9350466430187L787.9791485416666,317.5451262235641L791.4229252083334,322.7777534633875L792.9295774999999,305.71889387369157L793.7905216666667,317.69812868237494L795.2971739583334,321.5088997513056L795.5124099999999,284.7851131439209L797.0190622916666,304.9295163273811L797.6647704166667,302.32851497530936L802.8304354166667,316.7551779150963L803.4761435416666,320.8554680883884L804.9827958333333,308.1057358264923L805.6285039583333,315.120294880867L805.84374,292.18405129909513L806.2742120833333,291.9715075612068L806.4894481250001,305.10317183732985L807.9961004166668,296.610545527935L808.4265725,303.4520984828472L810.7941689583333,306.58989265561104L811.8703491666668,312.28182725906373L813.8074735416667,317.8322308242321L814.237945625,320.57915179133414L814.6684177083333,314.40151207447053L815.529361875,314.0246202945709L816.17507,317.1836607515812L818.9731385416667,323.60088462531564L819.1883745833333,305.7592539489269L819.4036106249999,324.0931254148483L820.6950268749999,321.5114131271839L822.4169152083334,305.47069772481916L823.7083314583334,323.2221929222345L823.9235675,313.8945202291012L824.1388035416667,306.96068581938744L824.9997477083334,324.2408213585615L826.0759279166667,324.4263123184443L827.5825802083334,278.70908032655717L829.3044685416667,315.6186848461628L830.1654127083334,301.9371968448162L831.0263568749999,305.0647667348385L831.4568289583334,316.0971430778503L832.7482452083334,321.0885671287775L833.3939533333333,323.96047826707365L833.8244254166667,315.9108117043972L834.2548975,306.26970182657243L834.6853695833333,276.40749316215516L835.3310777083334,289.13776782751086L836.4072579166666,313.40687811970713L838.9900904166666,309.52999863624575L840.0662706249999,315.16604349017143L841.1424508333333,319.7223479092121L845.0166995833333,321.57602160573003L845.8776437500001,313.8223997116089L846.523351875,307.2346494078636L847.5995320833333,305.0502505004406L849.106184375,309.95104358792304L849.9671285416666,300.6503641247749L850.397600625,292.57261449098587L851.689016875,300.5172192454338L851.9042529166666,321.3075454235077L853.1956691666666,323.57459361255167L854.7023214583334,324.12901489436626L855.9937377083334,318.7286712169647L856.6394458333333,309.5822997748852L857.9308620833333,313.11768596768377L860.2984585416667,314.23316195607185L860.728930625,310.8370439767838L862.2355829166667,303.54662029147147L862.8812910416667,304.49642020463943L863.5269991666667,320.0179622590542L863.95747125,315.62008703351023L865.0336514583332,316.2007274210453L868.477428125,302.80064089298247L868.9079002083332,318.7984030723572L869.12313625,324.63569551706314L869.9840804166666,315.8123282670975L870.1993164583332,319.9390240550041L871.060260625,319.69807928204534L871.4907327083332,318.6057910680771L872.7821489583332,314.03481311798095L872.997385,289.09569771289824L874.5040372916667,321.2645854592323L877.0868697916667,318.168629950285L878.1630500000001,326.55018684268L878.8087581249999,316.30670941472056L880.7458825000001,324.9841918796301L880.9611185416667,322.05631346702575L882.2525347916667,315.95205039381983L882.4677708333334,311.72343311309817L885.4810754166666,324.48435815572736L886.3420195833334,314.5856210708618L886.7724916666666,308.4069858908653L887.2029637500001,311.32043907642367L887.848671875,316.3828814446926L888.49438,293.59672359228136L890.431504375,320.6837529450655L891.722920625,312.9663598418236L892.1533927083333,317.96073320508003L894.5209891666666,308.6612154901028L894.7362252083333,318.4383577644825L896.0276414583333,296.62976717948914L897.53429375,301.62882348895073L902.69995875,322.14044583141805L903.345666875,323.1595585167408L903.991375,324.07819571495054L904.4218470833333,320.5247417539358L908.9418039583333,319.6371919929981L909.5875120833334,289.79221630096436L910.4484562499999,298.0474100470543L910.6636922916667,322.12678236961364L910.8789283333334,296.65768508911134L912.1703445833334,317.7481894671917L912.8160527083332,303.3306542277336L913.2465247916667,320.07412165999415L915.1836491666667,314.3570914983749L916.0445933333334,289.55862177610396L916.6903014583334,311.47523247003556L917.7664816666667,303.1662028193474L919.4883699999999,320.6755386888981L920.3493141666667,317.0080300450325L920.7797862499999,323.271103194356L921.2102583333334,324.2666258752346L924.0083268750001,303.90875764489175L924.4387989583333,306.1419230103493L925.0845070833334,313.21332907676697L927.6673395833334,315.57659675478936L928.52828375,323.4191935032606L929.6044639583333,321.0796944737434L930.0349360416666,315.4761178970337L932.1872964583333,314.77329845428466L932.6177685416666,322.84607077240946L933.0482406250001,321.3871768563986L935.8463091666666,322.32712213397025L937.1377254166666,323.9973811864853L939.2900858333334,313.3334565341473L940.3662660416666,314.7630943953991L941.8729183333332,307.3711963891983L942.5186264583333,315.4823917865753L942.9490985416666,295.49820199012754L947.253819375,303.1581717014313L947.4690554166667,316.5115546047688L947.6842914583333,314.90929040312767L948.7604716666667,316.38829020261767L949.19094375,324.7985267698765L950.48236,310.2840024113655L951.3433041666667,309.94490002989767L953.0651925,305.876069188118L953.2804285416667,296.0146248936653L954.35660875,313.5453463673592L954.5718447916666,308.77691167593L955.4327889583334,308.09736764431L957.8003854166667,320.5084278434515L959.0918016666667,316.11731974482535L960.3832179166667,315.80720713734627L961.0289260416666,318.8677394390106L964.2574666666667,288.42784756422043L965.1184108333333,312.1643760919571L966.6250631250001,317.1929255247116L967.4860072916666,313.4113925337791L968.5621874999999,306.6191453397274L969.6383677083334,302.367861610651L970.4993118749999,325.43189973831176L970.7145479166667,319.00904576778413L971.14502,322.51846565306187L973.0821443749999,320.36954950094224L973.2973804166667,319.6850326478481L975.664976875,298.9951313972473L976.0954489583333,296.7597975850105L976.310685,305.0142722606659L977.8173372916666,318.3754121363163L978.247809375,321.70192746818066L978.4630454166667,321.18036096394064L978.6782814583333,306.7483937561512L978.8935175,321.6829788386822L979.7544616666668,321.5168084025383L980.18493375,316.68984137773515L984.9201266666668,319.1249172270298L985.5658347916667,324.3851477831602L988.579139375,317.927181828022L989.6553195833333,301.75041380524635L989.870555625,310.7942323207855L990.3010277083333,305.22605872750285L992.0229160416667,306.3900135457516L993.09909625,314.5394118070602L994.6057485416667,311.1373322844505L1000.6323577083334,317.9552750110626L1002.13901,320.9258785665035L1004.5066064583334,317.64633988142015L1005.5827866666666,319.02382715940473L1007.5199110416667,318.6291496217251L1007.7351470833333,301.32999354600906L1009.8875075000001,309.185489743948L1010.1027435416667,311.42977823019027L1010.3179795833333,307.05826592445374L1010.7484516666666,322.70157806277274L1011.1789237500001,310.8056363284588L1011.6093958333333,320.7118472516537L1011.8246318749999,323.0536518007517L1012.0398679166666,324.41084331572057L1012.4703400000001,322.2128607183695L1016.3445887500001,312.9517132759094L1017.4207689583334,309.52759424448016L1018.4969491666666,316.6245610177517L1019.1426572916666,322.88090636432173L1019.7883654166666,320.32901190519334L1020.864545625,326.0567067801952L1023.2321420833333,314.26460555791857L1025.1692664583334,297.3404694318771L1025.8149745833334,319.68683032393454L1026.0302106249999,314.573248565197L1027.967335,316.32618049383166L1029.2587512500002,316.1459230184555L1032.487291875,318.47566853165625L1032.7025279166667,322.1677559018135L1033.9939441666666,316.49631255865097L1034.8548883333333,321.62305218279363L1035.5005964583333,323.96480167806146L1036.7920127083332,324.77683106660845L1037.2224847916666,321.54835312366487L1039.1596091666665,319.13426289558413L1040.0205533333333,320.13083384633063L1041.3119695833334,319.44846521615983L1042.3881497916666,313.9793907642364L1043.6795660416667,324.06413227021693L1044.5405102083332,305.06167922616004L1045.6166904166666,307.13459300398824L1047.1233427083332,301.0794244647026L1047.984286875,306.0534413933754L1049.92141125,309.6915984809399L1050.567119375,310.8111709237099L1053.149951875,322.3478021502495L1054.6566041666667,314.01301404833794L1055.3023122916668,312.11991956233976L1055.732784375,293.28166737556455L1055.9480204166666,294.79196696281434L1056.8089645833334,304.57702125906945L1057.024200625,317.14751397967336L1057.2394366666667,311.995830476284L1059.8222691666667,319.90436935424805L1061.1136854166666,322.14365693032744L1061.3289214583333,319.71367861628534L1061.7593935416667,319.3056443452835L1062.8355737499999,321.14015930891037L1063.0508097916668,319.20656767487526L1063.6965179166666,320.20755192041395L1064.9879341666667,320.6151873320341L1065.8488783333335,316.31595171689986L1067.355530625,321.723826533556L1069.5078910416667,319.7864260733128L1070.7993072916668,311.6158624231815L1071.6602514583333,321.30646232366564L1072.3059595833333,322.12044668495656L1074.0278479166666,317.7671212434769L1074.45832,308.7509487390518L1077.2563885416666,323.03856817483904L1078.1173327083334,318.8499694108963L1078.3325687499998,313.0825054466724L1082.4220535416666,312.9417181968689L1082.6372895833333,323.09238385558126L1083.2829977083334,323.65183863043785L1084.78965,318.46830480098726L1085.2201220833333,316.82919273376467L1086.9420104166666,318.05314049720766L1087.3724825,322.2265208095312L1087.5877185416666,316.0774405479431L1090.3857870833333,299.7301067709923L1090.8162591666667,307.98951157331464L1091.0314952083334,313.7560115337372L1092.9686195833333,322.1399132698774L1093.6143277083333,312.4161990523338L1094.0447997916665,310.7693322598934L1095.9819241666667,317.71926935315133L1096.6276322916667,326.16882221996786L1097.058104375,320.585180747509L1097.4885764583332,318.8969651579857L1100.0714089583332,315.1514036655426L1103.7304216666666,315.8677573621273L1104.806601875,319.03992984294894L1106.9589622916667,320.7674078017473L1108.2503785416666,318.6875426352024L1109.7570308333331,320.12356449365615L1111.0484470833333,305.5835490882397L1111.4789191666666,298.69269486665723L1112.3398633333334,275.35196068286893L1113.846515625,312.8507535398006L1114.0617516666666,323.90398966670034L1114.2769877083333,308.6115973830223L1116.4293481250002,318.00558297634126L1119.8731247916667,314.6032697558403L1120.949305,319.29136630296705L1122.0254852083333,321.53184821009637L1123.1016654166667,322.87724022865297L1123.3169014583334,320.3000828027725L1123.7473735416665,317.70738446712494L1124.3930816666666,316.9464866042137L1126.5454420833332,319.6182669579983L1127.40638625,323.9136038631201L1127.6216222916667,306.9154046058655L1128.9130385416665,323.8268716096878L1129.7739827083333,318.3870206296444L1129.98921875,327.3500684350729L1131.7111070833332,307.9461066842079L1132.3568152083333,320.9894601225853L1132.57205125,313.7902617573738L1133.0025233333333,320.97988637387755L1133.6482314583334,318.76527414917945L1133.8634675,320.99555087387563L1134.0787035416665,319.20499470829964L1134.2939395833332,321.765759575367L1135.15488375,319.01317592859266L1135.5853558333333,323.5101525425911L1136.2310639583334,294.4425706386566L1136.4463,316.7836216449738L1136.6615360416667,305.45074352025983L1136.8767720833332,307.1413792312145L1137.3072441666668,309.339078694582L1137.9529522916666,312.3554510831833L1138.1681883333333,321.7379360437393L1139.4596045833332,317.9560659885407L1140.7510208333333,299.52190442085265L1141.1814929166667,316.64164118766786L1141.8272010416667,314.30892052054406L1144.4100335416667,316.0175352394581L1146.131921875,323.1513712257147L1146.3471579166667,318.4650465130806L1146.5623939583334,319.5037302732468L1147.8538102083335,323.0986386448145L1149.3604625,321.49600479602816L1150.4366427083335,319.2544150710106L1151.943295,319.2627607822418L1152.8042391666668,320.41679018139837L1154.7413635416667,304.0944238781929L1156.0327797916666,316.49177117943765L1156.463251875,314.56441298723223L1157.10896,304.9859004378319L1158.6156122916666,313.6123951911926L1159.9070285416667,309.97372351884843L1160.5527366666665,302.93130722641945L1160.9832087500001,301.8781566679478L1161.1984447916666,310.78779888749125L1163.1355691666665,324.4283807694912L1165.2879295833334,324.2454211622477L1165.503165625,325.67287259995936L1167.2250539583333,319.94485301971434L1169.8078864583333,323.22408385276793L1170.4535945833334,309.1602548658848L1171.0993027083334,323.8629520922899L1173.89737125,320.41205779910086L1175.6192595833334,321.5920445173979L1177.3411479166666,319.2185514330864L1177.5563839583333,321.56391987502576L1178.2020920833334,321.87843004763124L1178.6325641666665,319.0648546218872L1178.8478002083334,320.4757764279842L1181.8611047916668,316.8811410784721L1183.1525210416667,321.6598022997379L1183.582993125,317.9268155515194L1185.9505895833333,319.03697940707207" style="fill: none;" fill="none"></path></g></g></g></g></g></g><g transform="translate(31, 377)" clip-path="url(#clip_1)"><clipPath id="clip_1"><rect width="1291" height="22"></rect></clipPath><g><g><line x1="0" y1="0" x2="0" y2="5" style="visibility: inherit;" fill="rgb(0, 0, 0)" stroke="rgb(204, 204, 204)" stroke-width="1px"></line><line x1="107.61802083333333" y1="0" x2="107.61802083333333" y2="5" style="visibility: inherit;" fill="rgb(0, 0, 0)" stroke="rgb(204, 204, 204)" stroke-width="1px"></line><line x1="215.23604166666667" y1="0" x2="215.23604166666667" y2="5" style="visibility: inherit;" fill="rgb(0, 0, 0)" stroke="rgb(204, 204, 204)" stroke-width="1px"></line><line x1="322.8540625" y1="0" x2="322.8540625" y2="5" style="visibility: inherit;" fill="rgb(0, 0, 0)" stroke="rgb(204, 204, 204)" stroke-width="1px"></line><line x1="430.47208333333333" y1="0" x2="430.47208333333333" y2="5" style="visibility: inherit;" fill="rgb(0, 0, 0)" stroke="rgb(204, 204, 204)" stroke-width="1px"></line><line x1="538.0901041666667" y1="0" x2="538.0901041666667" y2="5" style="visibility: inherit;" fill="rgb(0, 0, 0)" stroke="rgb(204, 204, 204)" stroke-width="1px"></line><line x1="645.708125" y1="0" x2="645.708125" y2="5" style="visibility: inherit;" fill="rgb(0, 0, 0)" stroke="rgb(204, 204, 204)" stroke-width="1px"></line><line x1="753.3261458333334" y1="0" x2="753.3261458333334" y2="5" style="visibility: inherit;" fill="rgb(0, 0, 0)" stroke="rgb(204, 204, 204)" stroke-width="1px"></line><line x1="860.9441666666667" y1="0" x2="860.9441666666667" y2="5" style="visibility: inherit;" fill="rgb(0, 0, 0)" stroke="rgb(204, 204, 204)" stroke-width="1px"></line><line x1="968.5621874999999" y1="0" x2="968.5621874999999" y2="5" style="visibility: inherit;" fill="rgb(0, 0, 0)" stroke="rgb(204, 204, 204)" stroke-width="1px"></line><line x1="1076.1802083333334" y1="0" x2="1076.1802083333334" y2="5" style="visibility: inherit;" fill="rgb(0, 0, 0)" stroke="rgb(204, 204, 204)" stroke-width="1px"></line><line x1="1183.7982291666667" y1="0" x2="1183.7982291666667" y2="5" style="visibility: inherit;" fill="rgb(0, 0, 0)" stroke="rgb(204, 204, 204)" stroke-width="1px"></line><line x1="1291.41625" y1="0" x2="1291.41625" y2="5" style="visibility: inherit;" fill="rgb(0, 0, 0)" stroke="rgb(204, 204, 204)" stroke-width="1px"></line></g><g transform="translate(0, 8)"><text x="0" y="0" dx="0em" dy="0.95em" style="text-anchor: middle; visibility: hidden; font-family: &quot;Helvetica Neue&quot;, sans-serif; font-size: 12px; font-weight: 200;" fill="rgb(50, 49, 63)" stroke="none" stroke-width="1px">-500</text><text x="107.61802083333333" y="0" dx="0em" dy="0.95em" style="text-anchor: middle; visibility: inherit; font-family: &quot;Helvetica Neue&quot;, sans-serif; font-size: 12px; font-weight: 200;" fill="rgb(50, 49, 63)" stroke="none" stroke-width="1px">0</text><text x="215.23604166666667" y="0" dx="0em" dy="0.95em" style="text-anchor: middle; visibility: inherit; font-family: &quot;Helvetica Neue&quot;, sans-serif; font-size: 12px; font-weight: 200;" fill="rgb(50, 49, 63)" stroke="none" stroke-width="1px">500</text><text x="322.8540625" y="0" dx="0em" dy="0.95em" style="text-anchor: middle; visibility: inherit; font-family: &quot;Helvetica Neue&quot;, sans-serif; font-size: 12px; font-weight: 200;" fill="rgb(50, 49, 63)" stroke="none" stroke-width="1px">1k</text><text x="430.47208333333333" y="0" dx="0em" dy="0.95em" style="text-anchor: middle; visibility: inherit; font-family: &quot;Helvetica Neue&quot;, sans-serif; font-size: 12px; font-weight: 200;" fill="rgb(50, 49, 63)" stroke="none" stroke-width="1px">1.5k</text><text x="538.0901041666667" y="0" dx="0em" dy="0.95em" style="text-anchor: middle; visibility: inherit; font-family: &quot;Helvetica Neue&quot;, sans-serif; font-size: 12px; font-weight: 200;" fill="rgb(50, 49, 63)" stroke="none" stroke-width="1px">2k</text><text x="645.708125" y="0" dx="0em" dy="0.95em" style="text-anchor: middle; visibility: inherit; font-family: &quot;Helvetica Neue&quot;, sans-serif; font-size: 12px; font-weight: 200;" fill="rgb(50, 49, 63)" stroke="none" stroke-width="1px">2.5k</text><text x="753.3261458333334" y="0" dx="0em" dy="0.95em" style="text-anchor: middle; visibility: inherit; font-family: &quot;Helvetica Neue&quot;, sans-serif; font-size: 12px; font-weight: 200;" fill="rgb(50, 49, 63)" stroke="none" stroke-width="1px">3k</text><text x="860.9441666666667" y="0" dx="0em" dy="0.95em" style="text-anchor: middle; visibility: inherit; font-family: &quot;Helvetica Neue&quot;, sans-serif; font-size: 12px; font-weight: 200;" fill="rgb(50, 49, 63)" stroke="none" stroke-width="1px">3.5k</text><text x="968.5621874999999" y="0" dx="0em" dy="0.95em" style="text-anchor: middle; visibility: inherit; font-family: &quot;Helvetica Neue&quot;, sans-serif; font-size: 12px; font-weight: 200;" fill="rgb(50, 49, 63)" stroke="none" stroke-width="1px">4k</text><text x="1076.1802083333334" y="0" dx="0em" dy="0.95em" style="text-anchor: middle; visibility: inherit; font-family: &quot;Helvetica Neue&quot;, sans-serif; font-size: 12px; font-weight: 200;" fill="rgb(50, 49, 63)" stroke="none" stroke-width="1px">4.5k</text><text x="1183.7982291666667" y="0" dx="0em" dy="0.95em" style="text-anchor: middle; visibility: inherit; font-family: &quot;Helvetica Neue&quot;, sans-serif; font-size: 12px; font-weight: 200;" fill="rgb(50, 49, 63)" stroke="none" stroke-width="1px">5k</text><text x="1291.41625" y="0" dx="0em" dy="0.95em" style="text-anchor: middle; visibility: hidden; font-family: &quot;Helvetica Neue&quot;, sans-serif; font-size: 12px; font-weight: 200;" fill="rgb(50, 49, 63)" stroke="none" stroke-width="1px">5.5k</text></g><line x1="0" y1="0" x2="1291.41625" y2="0" fill="rgb(0, 0, 0)" stroke="rgb(204, 204, 204)" stroke-width="1px"></line></g></g></g></g></svg>