<svg viewBox="0 0 1323.0113525390625 400" xmlns="http://www.w3.org/2000/svg"><g><g><g><g><g><line x1="31.59375" y1="377" x2="26.59375" y2="377" style="visibility: inherit;" fill="rgb(0, 0, 0)" stroke="rgb(204, 204, 204)" stroke-width="1px"></line><line x1="31.59375" y1="329.875" x2="26.59375" y2="329.875" style="visibility: inherit;" fill="rgb(0, 0, 0)" stroke="rgb(204, 204, 204)" stroke-width="1px"></line><line x1="31.59375" y1="282.75" x2="26.59375" y2="282.75" style="visibility: inherit;" fill="rgb(0, 0, 0)" stroke="rgb(204, 204, 204)" stroke-width="1px"></line><line x1="31.59375" y1="235.625" x2="26.59375" y2="235.625" style="visibility: inherit;" fill="rgb(0, 0, 0)" stroke="rgb(204, 204, 204)" stroke-width="1px"></line><line x1="31.59375" y1="188.5" x2="26.59375" y2="188.5" style="visibility: inherit;" fill="rgb(0, 0, 0)" stroke="rgb(204, 204, 204)" stroke-width="1px"></line><line x1="31.59375" y1="141.375" x2="26.59375" y2="141.375" style="visibility: inherit;" fill="rgb(0, 0, 0)" stroke="rgb(204, 204, 204)" stroke-width="1px"></line><line x1="31.59375" y1="94.25" x2="26.59375" y2="94.25" style="visibility: inherit;" fill="rgb(0, 0, 0)" stroke="rgb(204, 204, 204)" stroke-width="1px"></line><line x1="31.59375" y1="47.125" x2="26.59375" y2="47.125" style="visibility: inherit;" fill="rgb(0, 0, 0)" stroke="rgb(204, 204, 204)" stroke-width="1px"></line><line x1="31.59375" y1="0" x2="26.59375" y2="0" style="visibility: inherit;" fill="rgb(0, 0, 0)" stroke="rgb(204, 204, 204)" stroke-width="1px"></line></g><g transform="translate(21.59375, 0)"><text x="0" y="377" dx="0em" dy="0.3em" style="text-anchor: end; visibility: hidden; font-family: &quot;Helvetica Neue&quot;, sans-serif; font-size: 12px; font-weight: 200;" fill="rgb(50, 49, 63)" stroke="none" stroke-width="1px">-1</text><text x="0" y="329.875" dx="0em" dy="0.3em" style="text-anchor: end; visibility: inherit; font-family: &quot;Helvetica Neue&quot;, sans-serif; font-size: 12px; font-weight: 200;" fill="rgb(50, 49, 63)" stroke="none" stroke-width="1px">0</text><text x="0" y="282.75" dx="0em" dy="0.3em" style="text-anchor: end; visibility: inherit; font-family: &quot;Helvetica Neue&quot;, sans-serif; font-size: 12px; font-weight: 200;" fill="rgb(50, 49, 63)" stroke="none" stroke-width="1px">1</text><text x="0" y="235.625" dx="0em" dy="0.3em" style="text-anchor: end; visibility: inherit; font-family: &quot;Helvetica Neue&quot;, sans-serif; font-size: 12px; font-weight: 200;" fill="rgb(50, 49, 63)" stroke="none" stroke-width="1px">2</text><text x="0" y="188.5" dx="0em" dy="0.3em" style="text-anchor: end; visibility: inherit; font-family: &quot;Helvetica Neue&quot;, sans-serif; font-size: 12px; font-weight: 200;" fill="rgb(50, 49, 63)" stroke="none" stroke-width="1px">3</text><text x="0" y="141.375" dx="0em" dy="0.3em" style="text-anchor: end; visibility: inherit; font-family: &quot;Helvetica Neue&quot;, sans-serif; font-size: 12px; font-weight: 200;" fill="rgb(50, 49, 63)" stroke="none" stroke-width="1px">4</text><text x="0" y="94.25" dx="0em" dy="0.3em" style="text-anchor: end; visibility: inherit; font-family: &quot;Helvetica Neue&quot;, sans-serif; font-size: 12px; font-weight: 200;" fill="rgb(50, 49, 63)" stroke="none" stroke-width="1px">5</text><text x="0" y="47.125" dx="0em" dy="0.3em" style="text-anchor: end; visibility: inherit; font-family: &quot;Helvetica Neue&quot;, sans-serif; font-size: 12px; font-weight: 200;" fill="rgb(50, 49, 63)" stroke="none" stroke-width="1px">6</text><text x="0" y="0" dx="0em" dy="0.3em" style="text-anchor: end; visibility: hidden; font-family: &quot;Helvetica Neue&quot;, sans-serif; font-size: 12px; font-weight: 200;" fill="rgb(50, 49, 63)" stroke="none" stroke-width="1px">7</text></g><line x1="31.59375" y1="0" x2="31.59375" y2="377" fill="rgb(0, 0, 0)" stroke="rgb(204, 204, 204)" stroke-width="1px"></line></g></g><g transform="translate(31, 0)" clip-path="url(#clip_0)"><clipPath id="clip_0"><rect width="1291" height="376"></rect></clipPath><g><g><g><line x1="0" y1="0" x2="0" y2="377" fill="rgb(0, 0, 0)" stroke="rgb(60, 60, 60)" stroke-width="1px" opacity="0.25"></line><line x1="107.61802083333333" y1="0" x2="107.61802083333333" y2="377" fill="rgb(0, 0, 0)" stroke="rgb(60, 60, 60)" stroke-width="1px" opacity="0.25"></line><line x1="215.23604166666667" y1="0" x2="215.23604166666667" y2="377" fill="rgb(0, 0, 0)" stroke="rgb(60, 60, 60)" stroke-width="1px" opacity="0.25"></line><line x1="322.8540625" y1="0" x2="322.8540625" y2="377" fill="rgb(0, 0, 0)" stroke="rgb(60, 60, 60)" stroke-width="1px" opacity="0.25"></line><line x1="430.47208333333333" y1="0" x2="430.47208333333333" y2="377" fill="rgb(0, 0, 0)" stroke="rgb(60, 60, 60)" stroke-width="1px" opacity="0.25"></line><line x1="538.0901041666667" y1="0" x2="538.0901041666667" y2="377" fill="rgb(0, 0, 0)" stroke="rgb(60, 60, 60)" stroke-width="1px" opacity="0.25"></line><line x1="645.708125" y1="0" x2="645.708125" y2="377" fill="rgb(0, 0, 0)" stroke="rgb(60, 60, 60)" stroke-width="1px" opacity="0.25"></line><line x1="753.3261458333334" y1="0" x2="753.3261458333334" y2="377" fill="rgb(0, 0, 0)" stroke="rgb(60, 60, 60)" stroke-width="1px" opacity="0.25"></line><line x1="860.9441666666667" y1="0" x2="860.9441666666667" y2="377" fill="rgb(0, 0, 0)" stroke="rgb(60, 60, 60)" stroke-width="1px" opacity="0.25"></line><line x1="968.5621874999999" y1="0" x2="968.5621874999999" y2="377" fill="rgb(0, 0, 0)" stroke="rgb(60, 60, 60)" stroke-width="1px" opacity="0.25"></line><line x1="1076.1802083333334" y1="0" x2="1076.1802083333334" y2="377" fill="rgb(0, 0, 0)" stroke="rgb(60, 60, 60)" stroke-width="1px" opacity="0.25"></line><line x1="1183.7982291666667" y1="0" x2="1183.7982291666667" y2="377" fill="rgb(0, 0, 0)" stroke="rgb(60, 60, 60)" stroke-width="1px" opacity="0.25"></line><line x1="1291.41625" y1="0" x2="1291.41625" y2="377" fill="rgb(0, 0, 0)" stroke="rgb(60, 60, 60)" stroke-width="1px" opacity="0.25"></line></g><g><line x1="0" y1="377" x2="1291.41625" y2="377" fill="rgb(0, 0, 0)" stroke="rgb(60, 60, 60)" stroke-width="1px" opacity="0.25"></line><line x1="0" y1="329.875" x2="1291.41625" y2="329.875" fill="rgb(0, 0, 0)" stroke="rgb(60, 60, 60)" stroke-width="1px" opacity="0.25"></line><line x1="0" y1="282.75" x2="1291.41625" y2="282.75" fill="rgb(0, 0, 0)" stroke="rgb(60, 60, 60)" stroke-width="1px" opacity="0.25"></line><line x1="0" y1="235.625" x2="1291.41625" y2="235.625" fill="rgb(0, 0, 0)" stroke="rgb(60, 60, 60)" stroke-width="1px" opacity="0.25"></line><line x1="0" y1="188.5" x2="1291.41625" y2="188.5" fill="rgb(0, 0, 0)" stroke="rgb(60, 60, 60)" stroke-width="1px" opacity="0.25"></line><line x1="0" y1="141.375" x2="1291.41625" y2="141.375" fill="rgb(0, 0, 0)" stroke="rgb(60, 60, 60)" stroke-width="1px" opacity="0.25"></line><line x1="0" y1="94.25" x2="1291.41625" y2="94.25" fill="rgb(0, 0, 0)" stroke="rgb(60, 60, 60)" stroke-width="1px" opacity="0.25"></line><line x1="0" y1="47.125" x2="1291.41625" y2="47.125" fill="rgb(0, 0, 0)" stroke="rgb(60, 60, 60)" stroke-width="1px" opacity="0.25"></line><line x1="0" y1="0" x2="1291.41625" y2="0" fill="rgb(0, 0, 0)" stroke="rgb(60, 60, 60)" stroke-width="1px" opacity="0.25"></line></g></g></g><g><g><line x1="0" y1="329.875" x2="1291.41625" y2="329.875" fill="rgb(0, 0, 0)" stroke="rgb(153, 153, 153)" stroke-width="1.5px"></line></g></g><g><g><line x1="107.61802083333333" y1="0" x2="107.61802083333333" y2="377" fill="rgb(0, 0, 0)" stroke="rgb(153, 153, 153)" stroke-width="1.5px"></line></g></g><g><g><g><g><g><path stroke="rgb(0, 119, 187)" stroke-width="2px" d="M108.69420104166667,52.060699462890625L111.49226958333333,95.68973630666727L112.78368583333334,120.32459411694083L116.2274625,148.17537632496916L116.65793458333333,156.04610410696677L117.30364270833334,165.70128451664672L117.73411479166666,161.79113487195903L119.02553104166665,164.56647594711933L119.67123916666665,174.90655585903863L122.89977979166666,186.93174696651963L123.54548791666666,191.56320439135655L124.621668125,194.97751670524602L126.34355645833332,203.6562589498616L127.85020875000001,204.28478033943676L129.57209708333332,211.69553331777175L130.21780520833332,221.72436355646468L130.43304125,225.68605809317603L131.93969354166666,230.67305324664332L134.73776208333334,222.02537206311754L137.535830625,229.11305924943835L139.90342708333333,231.08986526815644L140.97960729166667,237.56104378128668L141.62531541666667,241.12006718363534L143.56243979166666,239.2451614556028L143.77767583333335,238.331224288001L145.93003625,240.9532573458048L147.0062164583333,236.60389630509772L147.43668854166665,239.7295558842632L147.65192458333334,241.6739587195086L148.51286875,244.51815570333648L150.23475708333334,241.61150122436447L151.95664541666667,240.22352732550954L152.17188145833333,243.2777009475244L153.24806166666667,246.76785567675145L155.61565812499998,247.08410968891516L156.907074375,248.11387568887304L157.98325458333335,250.28932724258283L158.62896270833335,251.40050532551533L161.21179520833334,249.8768854234363L162.5032114583333,251.44344132118692L163.57939166666668,252.24341004539082L165.08604395833333,250.17383492160712L165.946988125,251.91024813802832L166.37746020833333,250.54055404491416L170.466945,251.1927892854128L171.54312520833332,250.33723757799976L171.75836125,252.49583521574775L172.83454145833332,254.4801756208987L173.91072166666666,256.47346920170196L174.34119375,259.88211046697154L176.06308208333334,258.97922104621364L176.278318125,259.2262155295882L177.78497041666665,259.3257850814746L178.64591458333334,261.0398292427609L180.58303895833333,259.5149422398408L182.30492729166667,258.9461525685308L185.74870395833335,260.9166228000358L186.60964812499998,260.1203174724599L187.90106437499998,260.6441566964639L188.76200854166666,259.2717973840625L189.19248062499997,259.6456318230862L198.23239437499998,265.60775951334455L198.44763041666667,264.69041671626934L198.87810249999998,264.8290467993806L200.16951875,266.10849738933985L202.106643125,269.3411704052588L202.53711520833332,269.6691418736637L202.75235125,270.8902023881352L203.398059375,265.20386770663714L204.689475625,268.76586814104354L206.6266,266.8992505155732L207.272308125,267.55916577474653L207.48754416666668,268.5036173635505L209.63990458333333,269.0082437738051L213.29891729166664,267.8595489826363L213.729389375,269.28598338762293L216.74269395833332,267.4810946667157L217.81887416666666,270.75643160843623L218.24934625,272.4206039244161L218.895054375,273.87700687254824L220.61694270833334,272.3223747575602L221.90835895833334,272.6012426533891L222.33883104166665,271.83818961492733L222.98453916666665,273.5712642867062L224.27595541666665,272.95822682372886L225.352135625,270.2178718947897L227.50449604166667,272.47156448981343L228.79591229166667,273.1618217815231L230.08732854166666,272.92049177225056L230.94827270833335,273.26943449220437L232.23968895833335,273.6604934933268L232.67016104166666,270.35425529494773L232.88539708333334,270.38437923559485L233.31586916666666,274.1194050775107L233.74634125,274.8368069568954L233.96157729166666,275.0236989283372L235.0377575,273.7208158507233L235.25299354166668,274.00968300904543L237.19011791666668,273.2674378848416L238.48153416666668,272.8433797893729L238.91200625,275.1836409352902L239.98818645833333,275.510915492933L241.06436666666667,274.01771413383545L241.49483874999999,272.8598427003483L244.07767125,272.18106522714254L245.5843235416667,272.89288806054094L245.79955958333332,274.4311006315535L246.2300316666667,276.2233955650321L246.66050375,277.15200350813814L246.8757397916667,277.14927531559914L247.306211875,274.48874288964066L249.889044375,276.60744016270513L250.5347525,278.17471105993195L251.39569666666665,276.361746163013L252.04140479166665,276.68208240916874L252.68711291666665,276.79964239865865L253.54805708333333,277.7426063267608L253.76329312500002,279.73241379548426L254.62423729166665,279.8256373863776L255.70041750000001,278.28721711405274L258.0680139583333,278.5272074482927L258.928958125,278.93231410039004L259.57466625,278.18290808947404L261.2965545833333,276.9124096283407L262.15749875,278.1757207303698L262.803206875,277.93232316311924L263.0184429166667,279.4568515273138L263.2336789583333,280.07237906767153L264.74033125,280.3923763484551L266.0317475,280.4815116912599L266.46221958333336,278.0810369545505L266.677455625,278.1486720260552L267.5383997916667,278.8989418814523L268.39934395833336,281.54990312575956L269.260288125,280.12600740265646L269.4755241666667,279.9336484579551L270.33646833333336,281.2486079995815L272.27359270833335,279.8853250184646L273.134536875,279.5722392999524L273.34977291666667,279.5955136897203L273.56500895833335,279.6052245725415L273.99548104166666,279.50978351409566L274.21071708333335,280.83947204515533L275.50213333333335,281.50914793589834L276.3630775,281.5452746950335L276.57831354166666,279.7877345504014L277.008785625,281.52006118724637L277.4392577083333,280.4574154211872L278.08496583333334,280.83667669855316L278.30020187499997,282.22101892627927L278.51543791666666,281.6078330731252L278.73067395833334,282.02864744996185L279.37638208333334,281.7903480335185L280.23732625,283.4197264494961L281.31350645833334,283.1747371394912L281.5287425,282.2151366614985L281.74397854166665,283.2890037234835L283.0353947916667,282.8994186482556L286.6944075,284.45396206746864L287.5553516666667,282.5703970788143L287.98582375,282.29919446100126L289.0620039583333,281.14936670416193L294.2276689583333,283.2959377572155L294.6581410416666,284.0392800364027L295.73432125,284.45704953033504L296.1647933333333,286.3557880798505L297.0257375,286.80855713662663L297.4562095833333,286.6978708438704L299.1780979166667,287.0855329473394L300.46951416666667,286.6228508943068L301.33045833333335,286.2011882599441L302.837110625,284.71898920752096L303.26758270833335,285.5171056235879L304.55899895833335,285.52346642583905L304.98947104166666,284.28231693965375L305.63517916666666,284.9506298641096L306.28088729166666,285.22680946229286L308.00277562499997,285.3886994066142L308.21801166666665,285.91240280820745L308.86371979166665,282.49567958685054L310.37037208333334,284.60212219340974L311.01608020833334,284.85195125987156L312.95320458333333,284.6874160519244L313.81414875,285.45431079274425L314.459856875,285.2017803001762L314.67509291666664,289.079581049583L316.6122172916667,289.14301764220096L316.8274533333333,288.3179939612752L317.6883975,287.13622928708827L318.1188695833333,286.1525406304004L318.334105625,286.97596935111295L319.1950497916667,286.13233086572893L319.4102858333333,286.1354035681892L320.0559939583333,287.0732903865819L320.27123,288.04824308680566L321.9931183333333,287.77828939632815L322.8540625,287.08984976337103L323.28453458333337,287.4830335964307L323.7150066666666,287.7210550421205L323.93024270833337,289.04411978505414L325.86736708333336,289.40853089083646L326.51307520833336,290.9304826050366L328.2349635416667,289.80296769376787L328.665435625,288.8145405986082L329.74161583333336,288.9124132804973L330.81779604166667,289.15517285543103L332.32444833333335,288.5901151125277L335.12251687500003,289.9152566328433L336.413933125,287.7457703164093L337.05964125,288.473590785913L337.4901133333333,288.3784203735902L338.3510575,288.4354806696125L339.21200166666665,288.748867854759L339.64247375,288.9158875794917L340.7186539583333,288.3756593317812L340.93389,289.37836687868986L341.14912604166665,287.82541706923337L342.871014375,288.7134369329434L344.162430625,288.45895436202414L345.02337479166664,289.4014742570813L345.2386108333333,289.15631068037123L345.453846875,288.40148453883035L347.39097125,288.8059781043035L348.4671514583333,289.1650535463275L351.4804560416667,289.9399535863985L351.910928125,288.6514706915253L356.2156489583333,289.912272802331L356.43088500000005,289.38114834805606L357.2918291666667,288.0477484433668L357.5070652083333,289.4077455263625L357.72230125000004,289.9654413170391L361.59655000000004,291.2505890105232L362.6727302083333,290.1086603953877L364.1793825,289.8539477768206L364.39461854166666,289.28628734842914L365.68603479166666,290.3827645903586L366.11650687499997,291.55220663105L367.19268708333334,291.3756823691997L367.62315916666665,290.5383754314943L372.7888241666667,291.07375147294783L373.21929624999996,291.04470777721275L373.6497683333333,290.45326448506756L375.3716566666667,290.72040679470683L376.0173647916667,290.9712400014161L377.73925312499995,290.6845945373153L378.38496124999995,290.33403173416707L379.030669375,287.9401209523073L381.8287379166667,289.10323882220933L383.3353902083333,290.46955404948443L384.62680645833336,291.3217732624486L385.91822270833336,291.4437685976192L386.13345875,288.8301793438056L387.424875,289.0587816924965L389.5772354166667,287.8188985014627L390.653415625,289.41423279492074L390.8686516666666,289.894086327839L391.5143597916666,290.6608746389676L392.8057760416666,290.7195108258801L393.236248125,291.3798815860794L393.88195625,290.38752622630875L394.527664375,289.7152297748725L395.17337249999997,288.88650039455894L395.38860854166666,289.9203805662489L399.26285729166665,290.00759209616757L402.49139791666664,289.7867677505242L405.71993854166664,291.3203245100633L406.36564666666663,292.4066514728818L406.5808827083334,292.49005954911433L407.01135479166663,292.4462960389264L407.2265908333334,292.08399384778784L411.74654770833337,290.2653730068329L411.96178375,289.84893799744384L413.03796395833336,291.989295205011L413.68367208333336,292.3100394132936L414.54461625,292.2888152821782L414.97508833333336,291.78928809606566L415.8360325,292.10667129006106L416.69697666666667,291.97541268853024L417.5579208333333,293.0181018006067L422.93882187500003,293.5660635257518L423.15405791666666,293.91586213557457L425.521654375,293.5973234042438L427.2435427083333,294.9090573736973L427.45877875,294.7749247103302L428.104486875,293.90678434666205L428.5349589583333,292.44949627277975L428.750195,292.49395275329186L430.687319375,291.4420254839339L432.19397166666664,290.9726633407401L435.4225122916667,292.59684112237255L435.6377483333333,293.42727304140544L436.2834564583333,293.322175920843L440.37294125000005,293.5356856202119L441.4491214583333,293.17256746083694L441.66435750000005,293.8155598246467L442.0948295833333,292.90887669643234L443.60148187500005,293.1037903393535L445.1081341666667,294.37249611110855L445.3233702083333,294.78260871643647L447.2604945833333,294.9909003637721L448.12143875,293.3746833719307L448.5519108333333,294.10749287411534L449.412855,295.79478150907136L451.349979375,294.9742722410141L452.85663166666666,293.40810127545467L453.07186770833334,292.28544920080344L454.1480479166667,292.10959289308454L455.86993624999997,293.0641833027367L457.80706062499996,294.75421907783533L458.0222966666667,293.87461124826063L458.88324083333333,294.3144996343171L459.9594210416667,295.1088223891327L460.6051291666667,294.1720111958307L461.03560124999996,292.8812645669056L461.68130937499996,292.7264519420429L462.32701749999995,293.6916270755031L463.1879616666667,293.1698993624627L464.90985,294.35559539981955L466.6317383333333,293.80338830046816L467.4926825,292.8911337780533L468.138390625,294.3827985362755L468.3536266666667,294.0806923023788L469.6450429166667,293.4581058241086L469.86027895833337,293.8422586779092L471.5821672916666,292.9792206561741L472.44311145833336,293.26433211423017L472.6583475,295.52589066837464L472.8735835416666,292.0404852748766L473.304055625,292.83369196777664L473.94976375,293.87224028602316L475.4564160416666,294.20267615076943L475.67165208333336,293.5447292676988L477.3935404166666,293.8249637902631L477.60877645833335,293.2676343423637L479.54590083333335,293.06162220552636L480.406845,294.340086545438L480.83731708333335,294.35467479282045L481.48302520833334,295.9237824955787L482.55920541666666,294.57194499249493L482.77444145833334,294.3762499336912L483.20491354166666,293.80561066833224L483.42014958333334,293.587148786587L483.63538562499997,293.65330256581456L484.71156583333334,294.759078547717L487.72487041666665,294.2346813502079L489.66199479166664,295.10966978801287L490.95341104166664,294.3542422165453L492.4600633333334,295.42649022996306L492.675299375,295.10874971902297L494.61242375,294.31197510156585L496.11907604166663,293.7647222727153L498.0562004166666,294.2817816853293L498.7019085416666,294.03864544449857L500.2085608333333,292.94923318218355L500.6390329166667,292.9496859985063L501.4999770833333,294.5745153205079L503.6523375,293.98304830351367L503.8675735416667,295.17163592790894L504.51328166666667,294.178625364395L505.58946187500004,295.1578933771205L506.45040604166667,297.10554445241405L509.2484745833333,294.962724739042L509.67894666666666,295.0224754892153L509.8941827083333,294.736123960159L511.1855989583333,295.6774913763653L511.40083500000003,295.2464060154945L511.61607104166666,295.6298363844985L512.046543125,295.56449035945144L515.0598477083333,295.29454764808776L518.9340964583333,295.19473330131507L520.2255127083333,294.56744306654537L521.732165,295.44717262012244L523.02358125,295.2496997345834L523.8845254166666,295.6437649148315L524.3149975,297.2508376608854L524.7454695833334,295.31721734527144L526.0368858333334,295.2557297260963L526.6825939583333,295.21795179911874L527.1130660416667,295.74179992060914L527.7587741666666,295.21276276398333L528.4044822916667,294.4729764735021L529.0501904166666,296.1302408680509L530.9873147916667,295.70042545528355L531.4177868749999,296.3173471863934L534.0006193749999,296.172106491081L534.2158554166667,296.5547656187726L534.4310914583333,295.84353720362856L537.4443960416667,295.0040087831967L538.3053402083333,293.5568162669511L539.1662843749999,293.52112926660607L540.0272285416667,294.80615681480543L540.2424645833333,295.0434815142821L540.8881727083333,294.58158189977826L541.3186447916667,293.5591952855922L541.749116875,295.29717419776546L543.4710052083333,294.0651721133782L543.9014772916667,293.9419389560219L544.5471854166667,294.0557899233339L545.1928935416666,294.27343008557784L545.8386016666667,295.14180741393466L546.26907375,295.0333584289783L546.914781875,295.3779850358387L547.56049,295.68340847519755L551.0042666666667,297.71311856584384L552.5109189583334,297.04468355045697L553.5870991666666,296.3889165578245L553.8023352083334,295.614665872333L554.01757125,295.71735642044393L554.4480433333333,295.4009441863814L554.663279375,295.7863958884072L555.0937514583334,296.6589226876969L555.5242235416666,296.3162285450265L556.3851677083334,295.8597699560621L557.246111875,296.62288650023334L558.3222920833333,297.0595078953945L558.7527641666667,297.7513724976089L560.2594164583334,296.4915942021195L560.6898885416666,296.1193827610006L560.9051245833333,295.8591754478687L561.9813047916666,296.0683309759184L562.8422489583334,296.57411255690363L563.9184291666667,296.27206577511373L564.34890125,295.2837541738256L564.5641372916666,294.92225733334453L566.7164977083333,294.3594784851946L566.93173375,294.7379648814248L567.7926779166667,294.9860884058265L568.4383860416666,295.69779243217636L569.0840941666667,296.77434667734343L569.2993302083333,296.3526292847874L569.9450383333334,295.9245209281017L570.160274375,295.6040822228413L570.5907464583333,296.84573533002265L571.6669266666667,296.48240370967227L571.8821627083333,296.7374811763658L573.388815,294.76006127864684L573.6040510416666,295.7496614126597L574.4649952083333,294.97660679329834L574.8954672916666,295.67996578043346L575.325939375,295.24278525784996L576.1868835416667,294.98185329005355L578.3392439583333,295.46411403635284L578.7697160416667,296.887635562534L579.200188125,297.99659490508725L579.4154241666666,297.93920922233394L580.2763683333333,296.7897254017218L580.9220764583333,295.691861518456L582.6439647916667,295.8172243316373L583.5049089583333,295.98107194479707L586.5182135416667,296.7882244174266L587.3791577083333,296.21373636928706L587.8096297916667,296.40643633548916L588.88581,297.15964033987825L589.1010460416667,297.1873179274005L589.531518125,297.34156579656616L589.9619902083333,297.5465243272973L590.17722625,296.74727813082893L590.6076983333334,296.22587377237056L591.0381704166666,296.83022122625573L591.2534064583333,295.88811459567586L592.76005875,295.9683983470585L593.405766875,295.542830389475L594.4819470833334,294.4278847287507L597.0647795833333,294.9676938331372L597.92572375,294.57588736869377L598.571431875,293.86304073427607L600.7237922916667,293.446348013845L602.0152085416667,295.136757431845L602.2304445833333,294.05022195483457L602.6609166666667,295.6088029563738L603.3066247916666,295.46653349520636L603.9523329166667,296.5314957578294L604.1675689583333,296.32714281554894L604.3828050000001,295.45765506074355L606.5351654166667,293.99293860999063L606.7504014583333,295.33673522893974L606.9656375,297.4148443134093L607.3961095833333,297.16042215177197L609.9789420833333,297.0403303864525L610.194178125,298.12842581349173L610.4094141666667,297.43365856216883L610.6246502083334,297.32627713803373L612.3465385416666,296.2305451072688L614.2836629166667,295.2554632656238L617.942675625,295.05987169638047L620.9559802083334,295.4572228777097L621.816924375,296.624587198358L622.0321604166667,296.76028494850465L622.4626324999999,296.0418669481019L624.1845208333333,296.53995514505743L624.6149929166667,296.71357183512237L625.4759370833333,296.69571559641474L627.6282975,297.03198929139205L629.3501858333333,297.0479423374428L629.565421875,297.8856552255448L631.9330183333334,297.4027081675706L633.6549066666666,298.0131127504932L634.9463229166666,297.67336990049046L635.1615589583333,297.59605025118924L635.5920310416666,296.9688450477501L636.022503125,297.2057328332651L637.0986833333334,297.3633019244187L641.188168125,297.27952065262275L642.479584375,296.7689142328088L642.6948204166666,296.3213418007841L644.8471808333334,296.7510797757477L645.2776529166666,296.5330552296979L645.9233610416667,296.55157794875754L646.1385970833333,296.84257289363654L646.3538331249999,298.05828160699434L648.7214295833332,298.14700496587886L649.3671377083333,297.9269562625512L650.6585539583333,296.75338160476826L651.7347341666667,298.69932932544793L652.16520625,297.41518798702384L652.5956783333332,297.34948995848555L653.0261504166667,298.6979433693889L654.9632747916667,296.97885365178604L655.8242189583334,297.19697008663667L656.6851631249999,297.71472905358223L657.1156352083334,297.96930368113846L657.7613433333333,298.2500924311181L659.6984677083334,297.44795429659484L659.91370375,296.39702718825697L660.7746479166667,297.7283860675785L662.0660641666667,298.06263470544184L662.49653625,297.83506732817744L665.07936875,297.86360974393045L665.2946047916666,298.14623172749134L665.5098408333333,298.5573170821014L665.7250768749999,298.161866485485L666.3707850000001,298.0022433754257L667.2317291666667,297.16887626984425L668.5231454166667,297.3587310578746L668.7383814583334,298.0971206495954L669.3840895833333,297.7609674346324L671.1059779166667,298.07832413982607L672.182158125,298.96359614772354L672.82786625,299.68303221608846L673.473574375,299.5736450382808L673.6888104166666,298.5149921911203L674.9802266666666,297.6927444211986L675.41069875,297.44184833302177L676.702115,296.78448961397453L677.347823125,297.3428618086603L677.99353125,296.98504166145483L679.0697114583334,296.42894616627314L683.15919625,295.8858517402626L684.0201404166665,296.7490533259044L684.4506125,298.02898894646944L685.5267927083333,298.4622342669915L686.6029729166667,299.11819264793104L689.4010414583333,299.66957891883675L690.261985625,298.22526059986484L690.90769375,298.54081353808243L694.136234375,298.76790099301815L696.5038308333334,296.7009452489548L696.719066875,297.560321522208L697.364775,298.6451870366645L698.65619125,298.48119955150554L700.1628435416667,298.8117797636287L700.3780795833334,299.34432598729705L700.593315625,299.28419801461564L700.8085516666666,300.74543934981745L701.0237877083332,299.738275789742L701.23902375,299.7210728219296L702.9609120833334,299.0356045747486L707.9113410416667,299.3200164070539L708.1265770833334,299.2487569767721L708.3418131249999,298.826813007503L709.8484654166666,297.72368065423325L712.216061875,298.5309610122833L712.6465339583333,298.14465964462715L715.2293664583333,297.62615847662903L715.4446025000001,297.024247715329L716.090310625,297.71943370369365L716.5207827083333,298.90953477840003L716.7360187500001,298.46819080186117L717.1664908333333,299.1485687957539L721.255975625,296.2699426124295L722.3321558333333,296.94901364504096L722.9778639583333,297.1646195081401L723.6235720833333,298.5190914140658L725.5606964583333,298.8032083521197L725.7759325000001,298.5697317099518L727.06734875,297.6972185567585L727.4978208333333,298.26653031680394L727.713056875,298.00592734321003L729.004473125,297.65259306671646L729.65018125,298.52231487359063L730.9415975,299.92056785658275L731.3720695833333,298.45225407263797L731.8025416666667,300.01822766113975L732.4482497916667,298.75423170297563L734.3853741666667,298.78186574977167L735.461554375,298.9977466607185L735.8920264583332,299.4483311679418L736.1072624999999,297.9828323606524L736.3224985416667,298.4701219429894L738.6900949999999,298.0754137802317L740.8424554166667,298.1167635272857L742.5643437499999,296.73119761353234L746.2233564583333,296.9608397502035L747.7300087499999,298.19364459027827L747.9452447916667,298.9970708412527L748.5909529166667,298.70197211936704L750.7433133333334,299.3961813195681L752.0347295833334,297.38389027381754L752.8956737499999,298.3810878501225L753.9718539583333,298.1070514920884L754.4023260416666,298.136355117174L754.8327981250001,298.27650621844055L755.2632702083333,298.8690774250789L755.6937422916666,298.8649624650933L756.5546864583333,299.1379278013264L756.7699224999999,299.7742194210979L757.4156306250001,298.90178162905534L758.7070468750001,299.3464203331051L759.1375189583333,298.74260925073486L759.7832270833334,298.88681783866326L761.5051154166666,299.2051106279578L761.9355875,298.67020829233445L762.1508235416666,300.05923997886725L762.3660595833334,300.71590248958915L764.0879479166666,300.137868447403L767.3164885416666,300.97858160930866L767.746960625,300.77758568047284L768.1774327083333,299.55078926693676L768.6079047916666,299.860066804357L769.038376875,299.97739129547335L770.97550125,300.65040409138237L771.8364454166667,298.5145044301178L774.6345139583333,298.2193641080991L775.495458125,298.8411750325284L779.5849429166667,297.6861335473491L782.8134835416666,299.76012988908485L783.0287195833332,300.3205299200022L784.3201358333332,300.0865740490797L784.535371875,300.86595228390945L784.9658439583334,302.15293863759666L785.6115520833332,300.37060688940426L786.6877322916666,300.68577796225395L787.3334404166667,300.2917459428587L787.5486764583334,299.80931475879424L787.9791485416666,299.3542844630579L791.4229252083334,300.4587187336266L792.9295774999999,300.37308089532735L793.7905216666667,300.06421929358413L795.2971739583334,299.3991295502124L795.5124099999999,298.69492580625644L797.0190622916666,299.10375571926375L797.6647704166667,299.2963896225687L802.8304354166667,299.2368358660219L803.4761435416666,299.78422254553305L804.9827958333333,300.2715028299741L805.6285039583333,301.2016831054599L805.84374,298.9558884658999L806.2742120833333,299.27758763483683L806.4894481250001,298.91433537156297L807.9961004166668,297.88678373486346L808.4265725,298.07672507518856L810.7941689583333,297.14994103881315L811.8703491666668,298.5708233217752L813.8074735416667,299.13600652816035L814.237945625,299.3025451654323L814.6684177083333,299.16408638680747L815.529361875,298.229833963661L816.17507,298.81752226838387L818.9731385416667,299.5594265019233L819.1883745833333,300.28285604151097L819.4036106249999,301.19289008040437L820.6950268749999,300.58396316623214L822.4169152083334,298.93302705321025L823.7083314583334,299.40383335312197L823.9235675,298.83328837072844L824.1388035416667,299.60955521414274L824.9997477083334,299.29442954629417L826.0759279166667,299.5410726283178L827.5825802083334,298.37480895007764L829.3044685416667,298.8548767941303L830.1654127083334,299.44730900389595L831.0263568749999,299.10516327120445L831.4568289583334,299.0405462324475L832.7482452083334,299.57500997125237L833.3939533333333,299.256271683807L833.8244254166667,297.97769084789445L834.2548975,298.29460169802957L834.6853695833333,296.79900667030125L835.3310777083334,297.2903443185002L836.4072579166666,298.6244812016196L838.9900904166666,298.7059794100825L840.0662706249999,299.09369533554934L841.1424508333333,298.8558517116083L845.0166995833333,298.6903734754189L845.8776437500001,299.2281447381177L846.523351875,298.76975768389696L847.5995320833333,299.7088219498538L849.106184375,299.7082036837902L849.9671285416666,300.1429444912056L850.397600625,298.5592384852755L851.689016875,299.3969846408241L851.9042529166666,300.1537630612059L853.1956691666666,299.90070860710165L854.7023214583334,299.8685753204013L855.9937377083334,300.4842929665795L856.6394458333333,300.335259164843L857.9308620833333,300.0337546768624L860.2984585416667,301.13326250629655L860.728930625,300.05272237430233L862.2355829166667,300.4917878417386L862.8812910416667,300.4808545624145L863.5269991666667,300.7677000501709L863.95747125,301.03768294089775L865.0336514583332,299.9909017922505L868.477428125,300.10256782424597L868.9079002083332,299.97951038630094L869.12313625,299.82952411741786L869.9840804166666,299.71657603246433L870.1993164583332,299.8184033141283L871.060260625,299.65579687093185L871.4907327083332,299.75406622013145L872.7821489583332,298.2790000416082L872.997385,298.2940174268032L874.5040372916667,298.3501831487623L877.0868697916667,298.0137489405755L878.1630500000001,300.4273722957065L878.8087581249999,299.02930149081294L880.7458825000001,299.5641026296791L880.9611185416667,300.1188385008917L882.2525347916667,300.5852776926247L882.4677708333334,299.5297375268631L885.4810754166666,299.9891903845604L886.3420195833334,301.51989168215607L886.7724916666666,300.5961910801459L887.2029637500001,300.05107482477L887.848671875,300.4426519286869L888.49438,299.8657923884534L890.431504375,301.04689575417893L891.722920625,300.43011209478414L892.1533927083333,300.26015133625526L894.5209891666666,300.58824416676913L894.7362252083333,299.55147723364684L896.0276414583333,299.6836208403579L897.53429375,299.4645410865826L902.69995875,299.7410758221318L903.345666875,300.1486155649525L903.991375,300.2186120277942L904.4218470833333,299.73870408989796L908.9418039583333,299.82823759888294L909.5875120833334,299.2279204492252L910.4484562499999,299.82403653648385L910.6636922916667,300.97124440244966L910.8789283333334,300.7913848267325L912.1703445833334,299.7264323983388L912.8160527083332,299.32905287765243L913.2465247916667,300.5198147310184L915.1836491666667,300.1279055782179L916.0445933333334,300.3016033117783L916.6903014583334,300.00576486854624L917.7664816666667,300.2555750260882L919.4883699999999,300.6248079389413L920.3493141666667,300.51674827039716L920.7797862499999,300.14673897683906L921.2102583333334,300.3838890854137L924.0083268750001,299.88852658948997L924.4387989583333,299.47242427815024L925.0845070833334,300.1439696428121L927.6673395833334,299.5267786012257L928.52828375,300.5818289861777L929.6044639583333,301.01940126691454L930.0349360416666,300.03821007593984L932.1872964583333,300.3147629272015L932.6177685416666,300.60703418976493L933.0482406250001,301.23704720632094L935.8463091666666,300.7608937179795L937.1377254166666,301.1313803616614L939.2900858333334,303.0212921871812L940.3662660416666,302.5900802388233L941.8729183333332,301.37254904654276L942.5186264583333,302.57708707122003L942.9490985416666,301.53974680106637L947.253819375,300.8338596850681L947.4690554166667,300.10537750900073L947.6842914583333,300.0147520684021L948.7604716666667,300.54169356720547L949.19094375,302.04341573355737L950.48236,301.907849453915L951.3433041666667,301.88752843024065L953.0651925,300.26484724629955L953.2804285416667,299.6449964716973L954.35660875,300.2098774865235L954.5718447916666,300.86045009821447L955.4327889583334,300.41023628073805L957.8003854166667,300.14053269122763L959.0918016666667,300.7409971052094L960.3832179166667,300.4298662062695L961.0289260416666,300.1698773125535L964.2574666666667,299.3390374970273L965.1184108333333,300.84545927595116L966.6250631250001,301.49072000891573L967.4860072916666,301.6885013849176L968.5621874999999,301.37775258246876L969.6383677083334,301.22027959241757L970.4993118749999,301.7771005857843L970.7145479166667,300.1048248785053L971.14502,300.175022624571L973.0821443749999,299.55429989852837L973.2973804166667,299.6661433473726L975.664976875,299.9785883841216L976.0954489583333,300.0460369329035L976.310685,300.6758056307066L977.8173372916666,301.0927752926485L978.247809375,300.12314173427444L978.4630454166667,299.60052986053955L978.6782814583333,300.23425039713584L978.8935175,301.12057123222945L979.7544616666668,301.18873969995377L980.18493375,300.70327672829274L984.9201266666668,300.32408471983695L985.5658347916667,300.2123185073258L988.579139375,299.9179066851688L989.6553195833333,299.40270887225586L989.870555625,300.08973980492186L990.3010277083333,299.7413099291672L992.0229160416667,299.5824172784537L993.09909625,300.564584016183L994.6057485416667,301.35697202049437L1000.6323577083334,301.3104237297937L1002.13901,301.65940900622394L1004.5066064583334,301.94472389804474L1005.5827866666666,301.43578343324157L1007.5199110416667,302.57480357725797L1007.7351470833333,302.3187108167373L1009.8875075000001,302.15058162083403L1010.1027435416667,301.8195745990883L1010.3179795833333,300.97558781780066L1010.7484516666666,300.3500154422359L1011.1789237500001,300.3401732716939L1011.6093958333333,301.2523153051127L1011.8246318749999,301.30725524570875L1012.0398679166666,301.4327208801885L1012.4703400000001,301.86774670510175L1016.3445887500001,300.7993268038552L1017.4207689583334,300.48488676641705L1018.4969491666666,300.7219259237905L1019.1426572916666,301.27194999132513L1019.7883654166666,300.7169505177376L1020.864545625,301.960730729606L1023.2321420833333,301.85796992367875L1025.1692664583334,301.10630243948924L1025.8149745833334,301.6217281188477L1026.0302106249999,301.46523261761126L1027.967335,300.539246110293L1029.2587512500002,300.0613138128357L1032.487291875,300.66468947822074L1032.7025279166667,302.4755721431626L1033.9939441666666,301.8090237523111L1034.8548883333333,301.99789318412496L1035.5005964583333,302.4648188529608L1036.7920127083332,303.26179489363415L1037.2224847916666,303.1042301229786L1039.1596091666665,302.00524199438996L1040.0205533333333,301.76383914311475L1041.3119695833334,300.7624654487356L1042.3881497916666,301.5467686334601L1043.6795660416667,303.12834807213255L1044.5405102083332,302.37014275178973L1045.6166904166666,301.77124368182217L1047.1233427083332,300.1077992232525L1047.984286875,300.86962934803273L1049.92141125,300.7740408985096L1050.567119375,300.8174745385813L1053.149951875,300.84846260219615L1054.6566041666667,301.0907975767243L1055.3023122916668,301.8459073712938L1055.732784375,301.05442186954696L1055.9480204166666,300.487347985882L1056.8089645833334,300.24146816764977L1057.024200625,301.16727536699L1057.2394366666667,301.086081241255L1059.8222691666667,301.261061960271L1061.1136854166666,300.81356722939665L1061.3289214583333,301.9370963742057L1061.7593935416667,301.70296835420845L1062.8355737499999,300.65924020420505L1063.0508097916668,300.3960777062833L1063.6965179166666,300.2730843358433L1064.9879341666667,301.7757041801927L1065.8488783333335,302.2711361169766L1067.355530625,302.5087000739545L1069.5078910416667,302.69091990065397L1070.7993072916668,301.9915694562901L1071.6602514583333,300.9764744918531L1072.3059595833333,301.82319021409666L1074.0278479166666,301.82745238355346L1074.45832,301.5996835602018L1077.2563885416666,301.1907968057807L1078.1173327083334,301.5741334279546L1078.3325687499998,302.8479470324617L1082.4220535416666,302.8161118693412L1082.6372895833333,302.73598528607255L1083.2829977083334,302.5854710114215L1084.78965,302.01485822631207L1085.2201220833333,301.88128950913716L1086.9420104166666,301.2189843608139L1087.3724825,301.9015540571927L1087.5877185416666,302.1495140070867L1090.3857870833333,301.45357546658227L1090.8162591666667,300.4402063098604L1091.0314952083334,300.5535338048371L1092.9686195833333,300.51926949764686L1093.6143277083333,301.29466121283406L1094.0447997916665,300.1848870568707L1095.9819241666667,300.15809978265963L1096.6276322916667,301.3579878820145L1097.058104375,300.83754334230207L1097.4885764583332,300.70977660941475L1100.0714089583332,301.0667609836304L1103.7304216666666,300.86604909096025L1104.806601875,301.2465792268149L1106.9589622916667,301.77794055459685L1108.2503785416666,301.45463419448015L1109.7570308333331,301.8778701036613L1111.0484470833333,302.1943404411936L1111.4789191666666,301.8093348196545L1112.3398633333334,300.73117434390775L1113.846515625,301.3082258219027L1114.0617516666666,301.51600756135605L1114.2769877083333,301.375411521715L1116.4293481250002,302.1507239498628L1119.8731247916667,301.3886446838339L1120.949305,302.12394510416743L1122.0254852083333,303.79435941105226L1123.1016654166667,303.1568948300191L1123.3169014583334,302.3009711188977L1123.7473735416665,301.40018510418565L1124.3930816666666,301.2040617203559L1126.5454420833332,302.31899351095234L1127.40638625,302.9484992129509L1127.6216222916667,302.0231559993568L1128.9130385416665,302.49561182986156L1129.7739827083333,301.5242984314588L1129.98921875,301.59704870699807L1131.7111070833332,301.49929928910115L1132.3568152083333,301.409345356413L1132.57205125,300.9408805744578L1133.0025233333333,301.47582305829104L1133.6482314583334,301.86400478101L1133.8634675,301.36041153977055L1134.0787035416665,301.3424400956019L1134.2939395833332,300.7779943418851L1135.15488375,300.9750837995023L1135.5853558333333,301.74580063899816L1136.2310639583334,302.4027583955554L1136.4463,301.51763146870303L1136.6615360416667,301.5107430532752L1136.8767720833332,301.8176540324198L1137.3072441666668,301.8783418440286L1137.9529522916666,302.5776801707425L1138.1681883333333,303.48046703947057L1139.4596045833332,303.8706714678554L1140.7510208333333,302.5027894627302L1141.1814929166667,301.2747641593962L1141.8272010416667,300.7822216982096L1144.4100335416667,300.66565712299644L1146.131921875,301.41808103326974L1146.3471579166667,301.9789295870305L1146.5623939583334,301.86156932581906L1147.8538102083335,302.7740134690371L1149.3604625,302.00887193048993L1150.4366427083335,301.91497254529594L1151.943295,302.5062884191215L1152.8042391666668,302.5828808277571L1154.7413635416667,302.27463004170204L1156.0327797916666,302.99316011177507L1156.463251875,302.054200671953L1157.10896,301.84208417406205L1158.6156122916666,301.85531277340965L1159.9070285416667,301.8935486399073L1160.5527366666665,300.9513189925515L1160.9832087500001,300.6377243926384L1161.1984447916666,301.63981346370326L1163.1355691666665,302.35615750003785L1165.2879295833334,302.9728963932331L1165.503165625,303.7880757874808L1167.2250539583333,303.00167381623754L1169.8078864583333,302.9765495232306L1170.4535945833334,302.6120550287701L1171.0993027083334,303.0354814888798L1173.89737125,303.86128824423326L1175.6192595833334,303.941519233409L1177.3411479166666,302.5706813084027L1177.5563839583333,302.48355166297796L1178.2020920833334,303.1923537533381L1178.6325641666665,303.6224224436819L1178.8478002083334,302.58089889696475L1181.8611047916668,302.67475858695053L1183.1525210416667,302.6240003190442L1183.582993125,302.17691145432025L1185.9505895833333,302.2341363793136" style="fill: none;" fill="none"></path></g></g></g></g><g opacity="0.2"><g><g><g><path stroke="rgb(0, 119, 187)" stroke-width="2px" d="M108.69420104166667,52.060699462890625L111.49226958333333,121.86715841293335L112.78368583333334,143.9740576148033L116.2274625,180.92789620161057L116.65793458333333,166.32212629914284L117.30364270833334,179.0578748881817L117.73411479166666,156.19955831766129L119.02553104166665,168.61294987797737L119.67123916666665,190.15616527199745L122.89977979166666,204.78775429725647L123.54548791666666,198.46838355064392L124.621668125,200.08040463924408L126.34355645833332,216.64603471755981L127.85020875000001,205.22633108496666L129.57209708333332,222.80295172333717L130.21780520833332,236.76053580641747L130.43304125,231.6269234418869L131.93969354166666,238.152279779315L134.73776208333334,209.0551676750183L137.535830625,239.74394218623638L139.90342708333333,234.05496588349342L140.97960729166667,247.26759861409664L141.62531541666667,246.45853202044964L143.56243979166666,236.43282507359982L143.77767583333335,236.9603250324726L145.93003625,244.8862957507372L147.0062164583333,230.07986587285995L147.43668854166665,244.41804045438766L147.65192458333334,244.59056118130684L148.51286875,248.78444960713387L150.23475708333334,237.25152046978474L151.95664541666667,238.14156675338745L152.17188145833333,247.8589610159397L153.24806166666667,252.00308752059937L155.61565812499998,247.55849069356918L156.907074375,249.65852466225624L157.98325458333335,253.55250453948975L158.62896270833335,253.06727243959904L161.21179520833334,247.59145557880402L162.5032114583333,253.79327516257763L163.57939166666668,253.44336313009262L165.08604395833333,247.06947223842144L165.946988125,254.5148679614067L166.37746020833333,248.4860129058361L170.466945,252.17114214599133L171.54312520833332,249.05391001701355L171.75836125,255.73373167216778L172.83454145833332,257.4566862285137L173.91072166666666,259.46340957283974L174.34119375,264.99507236480713L176.06308208333334,257.6248869150877L176.278318125,259.5967072546482L177.78497041666665,259.47513940930367L178.64591458333334,263.6108954846859L180.58303895833333,257.22761173546314L182.30492729166667,258.09296806156635L185.74870395833335,263.87232814729214L186.60964812499998,258.92585948109627L187.90106437499998,261.42991553246975L188.76200854166666,257.2132584154606L189.19248062499997,260.20638348162174L198.23239437499998,274.5509510487318L198.44763041666667,263.3144025206566L198.87810249999998,265.03699192404747L200.16951875,268.02767327427864L202.106643125,274.19017992913723L202.53711520833332,270.16109907627106L202.75235125,272.7217931598425L203.398059375,256.67436568439007L204.689475625,274.1088687926531L206.6266,264.0993240773678L207.272308125,268.5490386635065L207.48754416666668,269.92029474675655L209.63990458333333,269.76518338918686L213.29891729166664,266.1365067958832L213.729389375,271.4256349951029L216.74269395833332,264.7737615853548L217.81887416666666,275.6694370210171L218.24934625,274.916862398386L218.895054375,276.0616112947464L220.61694270833334,269.99042658507824L221.90835895833334,273.0195444971323L222.33883104166665,270.69361005723476L222.98453916666665,276.17087629437447L224.27595541666665,272.0386706292629L225.352135625,266.1073395013809L227.50449604166667,275.852103382349L228.79591229166667,274.1972077190876L230.08732854166666,272.5584967583418L230.94827270833335,273.792848572135L232.23968895833335,274.2470819950104L232.67016104166666,265.3948979973793L232.88539708333334,270.42956514656544L233.31586916666666,279.7219438403845L233.74634125,275.91290977597237L233.96157729166666,275.30403688549995L235.0377575,271.7664912343025L235.25299354166668,274.4429837465286L237.19011791666668,272.1540701985359L238.48153416666668,272.20729264616966L238.91200625,278.6940326541662L239.98818645833333,276.0018273293972L241.06436666666667,271.7779120951891L241.49483874999999,271.1230355501175L244.07767125,271.162899017334L245.5843235416667,273.9606223106384L245.79955958333332,276.7384194880724L246.2300316666667,278.91183796525L246.66050375,278.5449154227972L246.8757397916667,277.1451830267906L247.306211875,270.49794425070286L249.889044375,279.78548607230186L250.5347525,280.5256174057722L251.39569666666665,273.6422988176346L252.04140479166665,277.16258677840233L252.68711291666665,276.97598238289356L253.54805708333333,279.15705221891403L253.76329312500002,282.7171249985695L254.62423729166665,279.9654727727175L255.70041750000001,275.97958670556545L258.0680139583333,278.8871929496527L258.928958125,279.53997407853603L259.57466625,277.0587990731001L261.2965545833333,275.00666193664074L262.15749875,280.0706873834133L262.803206875,277.56722681224346L263.0184429166667,281.74364407360554L263.2336789583333,280.99567037820816L264.74033125,280.87237226963043L266.0317475,280.6152147054672L266.46221958333336,274.48032484948635L266.677455625,278.2501246333122L267.5383997916667,280.0243466645479L268.39934395833336,285.5263449922204L269.260288125,277.99016381800175L269.4755241666667,279.6451100409031L270.33646833333336,283.22104731202126L272.27359270833335,277.84040054678917L273.134536875,279.1026107221842L273.34977291666667,279.6304252743721L273.56500895833335,279.61979089677334L273.99548104166666,279.3666219264269L274.21071708333335,282.8340048417449L275.50213333333335,282.5136617720127L276.3630775,281.5994648337364L276.57831354166666,277.1514243334532L277.008785625,284.11855114251375L277.4392577083333,278.86344677209854L278.08496583333334,281.4055686146021L278.30020187499997,284.2975322678685L278.51543791666666,280.6880542933941L278.73067395833334,282.6598690152168L279.37638208333334,281.43289890885353L280.23732625,285.8637940734625L281.31350645833334,282.8072531744838L281.5287425,280.7757359445095L281.74397854166665,284.8998043164611L283.0353947916667,282.31504103541374L286.6944075,286.7857771962881L287.5553516666667,279.7450495958328L287.98582375,281.89239053428173L289.0620039583333,279.42462506890297L294.2276689583333,286.5157943367958L294.6581410416666,285.1542934551835L295.73432125,285.08370377123356L296.1647933333333,289.2038959041238L297.0257375,287.4877107217908L297.4562095833333,286.53184140473604L299.1780979166667,287.6670261025429L300.46951416666667,285.9288278147578L301.33045833333335,285.56869430840015L302.837110625,282.4956906288862L303.26758270833335,286.7142802476883L304.55899895833335,285.5330076292157L304.98947104166666,282.4205927103758L305.63517916666666,285.95309925079346L306.28088729166666,285.64107885956764L308.00277562499997,285.6315343230963L308.21801166666665,286.6979579105973L308.86371979166665,277.3705947548151L310.37037208333334,287.7617861032486L311.01608020833334,285.2266948595643L312.95320458333333,284.4406132400036L313.81414875,286.60465290397406L314.459856875,284.8229845613241L314.67509291666664,294.8962821736932L316.6122172916667,289.23817253112793L316.8274533333333,287.08045843988657L317.6883975,285.36358227580786L318.1188695833333,284.6770076453686L318.334105625,288.21111243218184L319.1950497916667,284.8668731376529L319.4102858333333,286.1400126218796L320.0559939583333,288.480120614171L320.27123,289.5106721371412L321.9931183333333,287.3733588606119L322.8540625,286.0571903139353L323.28453458333337,288.0728093460202L323.7150066666666,288.0780872106552L323.93024270833337,291.0287168994546L325.86736708333336,289.95514754951L326.51307520833336,293.21341017633677L328.2349635416667,288.1116953268647L328.665435625,287.3318999558687L329.74161583333336,289.0592223033309L330.81779604166667,289.5193122178316L332.32444833333335,287.74252849817276L335.12251687500003,291.9029689133167L336.413933125,284.49154084175825L337.05964125,289.56532149016857L337.4901133333333,288.235664755106L338.3510575,288.52107111364603L339.21200166666665,289.2189486324787L339.64247375,289.1664171665907L340.7186539583333,287.56531696021557L340.93389,290.8824281990528L341.14912604166665,285.49599235504866L342.871014375,290.0454667285085L344.162430625,288.0772305056453L345.02337479166664,290.8152540996671L345.2386108333333,288.7885653153062L345.453846875,287.269245326519L347.39097125,289.4127184525132L348.4671514583333,289.70366670936346L351.4804560416667,291.1023036465049L351.910928125,286.7187463492155L356.2156489583333,291.8034759685397L356.43088500000005,288.5844616666436L357.2918291666667,286.0476485863328L357.5070652083333,291.447741150856L357.72230125000004,290.80198500305414L361.59655000000004,293.1783105507493L362.6727302083333,288.3957674726844L364.1793825,289.47187884896994L364.39461854166666,288.434796705842L365.68603479166666,292.0274804532528L366.11650687499997,293.3063696920872L367.19268708333334,291.1108959764242L367.62315916666665,289.2824150249362L372.7888241666667,291.8768155351281L373.21929624999996,291.00114223361015L373.6497683333333,289.5660995468497L375.3716566666667,291.12112025916576L376.0173647916667,291.34748981148005L377.73925312499995,290.2546263411641L378.38496124999995,289.8081875294447L379.030669375,284.34925477951765L381.8287379166667,290.8479156270623L383.3353902083333,292.5190268903971L384.62680645833336,292.6001020818949L385.91822270833336,291.6267616003752L386.13345875,284.9097954630852L387.424875,289.4016852155328L389.5772354166667,285.95907371491194L390.653415625,291.8072342351079L390.8686516666666,290.61386662721634L391.5143597916666,291.81105710566044L392.8057760416666,290.80746510624886L393.236248125,292.37043772637844L393.88195625,288.89899318665266L394.527664375,288.70678509771824L395.17337249999997,287.6434063240886L395.38860854166666,291.4712008237839L399.26285729166665,290.13840939104557L402.49139791666664,289.455531232059L405.71993854166664,293.6206596493721L406.36564666666663,294.0361419171095L406.5808827083334,292.6151716634631L407.01135479166663,292.38065077364445L407.2265908333334,291.54054056108L411.74654770833337,287.53744174540043L411.96178375,289.2242854833603L413.03796395833336,295.1998310163617L413.68367208333336,292.79115572571754L414.54461625,292.256979085505L414.97508833333336,291.0399973168969L415.8360325,292.5827460810542L416.69697666666667,291.7785247862339L417.5579208333333,294.5821354687214L422.93882187500003,294.3880061134696L423.15405791666666,294.4405600503087L425.521654375,293.11951530724764L427.2435427083333,296.8766583278775L427.45877875,294.5737257152796L428.104486875,292.60457380115986L428.5349589583333,290.2635641619563L428.750195,292.56063747406006L430.687319375,289.8641345798969L432.19397166666664,290.2686201259494L435.4225122916667,295.03310779482126L435.6377483333333,294.6729209199548L436.2834564583333,293.1645302399993L440.37294125000005,293.85595016926527L441.4491214583333,292.6278902217746L441.66435750000005,294.7800483703613L442.0948295833333,291.5488520041108L443.60148187500005,293.39616080373526L445.1081341666667,296.27555476874113L445.3233702083333,295.3977776244283L447.2604945833333,295.30333783477545L448.12143875,290.9503578841686L448.5519108333333,295.2067071273923L449.412855,298.3257144615054L451.349979375,293.7435083389282L452.85663166666666,291.05884482711554L453.07186770833334,290.60147108882666L454.1480479166667,291.84580843150616L455.86993624999997,294.49606891721487L457.80706062499996,297.2892727404833L458.0222966666667,292.5551995038986L458.88324083333333,294.9743322134018L459.9594210416667,296.3003065213561L460.6051291666667,292.7667944058776L461.03560124999996,290.945144623518L461.68130937499996,292.4942330047488L462.32701749999995,295.1393897756934L463.1879616666667,292.387307792902L464.90985,296.1341394558549L466.6317383333333,292.9750776514411L467.4926825,291.522751994431L468.138390625,296.6202956736088L468.3536266666667,293.6275329515338L469.6450429166667,292.5242261067033L469.86027895833337,294.41848795861006L471.5821672916666,291.6846636235714L472.44311145833336,293.69199930131435L472.6583475,298.91822849959135L472.8735835416666,286.81237718462944L473.304055625,294.0235020071268L473.94976375,295.4300627633929L475.4564160416666,294.69832994788885L475.67165208333336,292.5578089430928L477.3935404166666,294.24531557410955L477.60877645833335,292.4316401705146L479.54590083333335,292.75260400027037L480.406845,296.2577830553055L480.83731708333335,294.3765571638942L481.48302520833334,298.277444049716L482.55920541666666,292.54418873786926L482.77444145833334,294.0827073454857L483.20491354166666,292.9496517702937L483.42014958333334,293.25945596396923L483.63538562499997,293.75253323465586L484.71156583333334,296.41774252057076L487.72487041666665,293.4480855539441L489.66199479166664,296.42215244472027L490.95341104166664,293.221100859344L492.4600633333334,297.03486225008965L492.675299375,294.6321389526129L494.61242375,293.11681317538023L496.11907604166663,292.94384302943945L498.0562004166666,295.05737080425024L498.7019085416666,293.67394108325243L500.2085608333333,291.31511478871107L500.6390329166667,292.9503652229905L501.4999770833333,297.0117593035102L503.6523375,293.0958477780223L503.8675735416667,296.95451736450195L504.51328166666667,292.68910951912403L505.58946187500004,296.62679539620876L506.45040604166667,300.02702106535435L509.2484745833333,291.74849516898394L509.67894666666666,295.11210161447525L509.8941827083333,294.3065966665745L511.1855989583333,297.0895425006747L511.40083500000003,294.5997779741883L511.61607104166666,296.2049819380045L512.046543125,295.4664713218808L515.0598477083333,294.8896335810423L518.9340964583333,295.04501178115606L520.2255127083333,293.62650771439075L521.732165,296.7667669504881L523.02358125,294.9534904062748L523.8845254166666,296.23486268520355L524.3149975,299.66144677996635L524.7454695833334,292.4167868718505L526.0368858333334,295.1634982973337L526.6825939583333,295.1612849086523L527.1130660416667,296.5275721028447L527.7587741666666,294.4192070290446L528.4044822916667,293.3632970377803L529.0501904166666,298.61613745987415L530.9873147916667,295.0557023361325L531.4177868749999,297.24272978305817L534.0006193749999,295.9542454481125L534.2158554166667,297.1287543103099L534.4310914583333,294.7766945809126L537.4443960416667,293.7447161525488L538.3053402083333,291.3860274925828L539.1662843749999,293.4675987660885L540.0272285416667,296.7336981371045L540.2424645833333,295.39946856349707L540.8881727083333,293.8887324780226L541.3186447916667,292.0256153643131L541.749116875,297.90414256602526L543.4710052083333,292.21716898679733L543.9014772916667,293.7570892199874L544.5471854166667,294.2265663743019L545.1928935416666,294.59989032894373L545.8386016666667,296.4443734064698L546.26907375,294.8706849515438L546.914781875,295.8949249461293L547.56049,296.14154363423586L551.0042666666667,300.7576837018132L552.5109189583334,296.04203102737665L553.5870991666666,295.4052660688758L553.8023352083334,294.4532898440957L554.01757125,295.87139224261045L554.4480433333333,294.92632583528757L554.663279375,296.3645734414458L555.0937514583334,297.9677128866315L555.5242235416666,295.80218733102083L556.3851677083334,295.1750820726156L557.246111875,297.7675613164902L558.3222920833333,297.7144399881363L558.7527641666667,298.7891694009304L560.2594164583334,294.6019267588854L560.6898885416666,295.5610655993223L560.9051245833333,295.4688644781709L561.9813047916666,296.382064267993L562.8422489583334,297.33278492838144L563.9184291666667,295.8189956024289L564.34890125,293.8012867718935L564.5641372916666,294.3800120726228L566.7164977083333,293.5153102129698L566.93173375,295.30569447577L567.7926779166667,295.35827369242907L568.4383860416666,296.76534847170115L569.0840941666667,298.389178045094L569.2993302083333,295.72005319595337L569.9450383333334,295.2823583930731L570.160274375,295.12342416495085L570.5907464583333,298.70821499079466L571.6669266666667,295.93740627914667L571.8821627083333,297.1200973764062L573.388815,291.79393143206835L573.6040510416666,297.23406161367893L574.4649952083333,293.8170248642564L574.8954672916666,296.73500426113605L575.325939375,294.5870144739747L576.1868835416667,294.5904553383589L578.3392439583333,296.1875051558018L578.7697160416667,299.0229178518057L579.200188125,299.6600339189172L579.4154241666666,297.85313069820404L580.2763683333333,295.06549967080355L580.9220764583333,294.04506569355726L582.6439647916667,296.00526855140924L583.5049089583333,296.22684336453676L586.5182135416667,297.9989531263709L587.3791577083333,295.35200429707766L587.8096297916667,296.6954862847924L588.88581,298.2894463464618L589.1010460416667,297.2288343086839L589.531518125,297.5729376003146L589.9619902083333,297.853962123394L590.17722625,295.5484088361263L590.6076983333334,295.44376723468304L591.0381704166666,297.7367424070835L591.2534064583333,294.474954649806L592.76005875,296.08882397413254L593.405766875,294.9044784530997L594.4819470833334,292.7554662376642L597.0647795833333,295.777407489717L597.92572375,293.98817767202854L598.571431875,292.7937707826495L600.7237922916667,292.82130893319845L602.0152085416667,297.67237155884504L602.2304445833333,292.42041873931885L602.6609166666667,297.94667445868254L603.3066247916666,295.25312930345535L603.9523329166667,298.1289391517639L604.1675689583333,296.0206134021282L604.3828050000001,294.15342342853546L606.5351654166667,291.79586393386126L606.7504014583333,297.3524301573634L606.9656375,300.53200794011354L607.3961095833333,296.77878890931606L609.9789420833333,296.8601927384734L610.194178125,299.76056895405054L610.4094141666667,296.3915076851845L610.6246502083334,297.16520500183105L612.3465385416666,294.58694706112146L614.2836629166667,293.7928405031562L617.942675625,294.76648434251547L620.9559802083334,296.0532496497035L621.816924375,298.37563367933035L622.0321604166667,296.96383157372475L622.4626324999999,294.96423994749784L624.1845208333333,297.2870874404907L624.6149929166667,296.9739968702197L625.4759370833333,296.66893123835325L627.6282975,297.536399833858L629.3501858333333,297.07187190651894L629.565421875,299.1422245576978L631.9330183333334,296.6782875806093L633.6549066666666,298.928719624877L634.9463229166666,297.1637556254864L635.1615589583333,297.4800707772374L635.5920310416666,296.0280372425914L636.022503125,297.56106451153755L637.0986833333334,297.5996555611491L641.188168125,297.15384874492884L642.479584375,296.0030046030879L642.6948204166666,295.64998315274715L644.8471808333334,297.39568673819304L645.2776529166666,296.2060184106231L645.9233610416667,296.5793620273471L646.1385970833333,297.27906531095505L646.3538331249999,299.88184467703104L648.7214295833332,298.2800900042057L649.3671377083333,297.5968832075596L650.6585539583333,294.99301961809397L651.7347341666667,301.61825090646744L652.16520625,295.48897597938776L652.5956783333332,297.250942915678L653.0261504166667,300.720623485744L654.9632747916667,294.40021907538176L655.8242189583334,297.5241447389126L656.6851631249999,298.49136750400066L657.1156352083334,298.35116562247276L657.7613433333333,298.6712755560875L659.6984677083334,296.24474709481L659.91370375,294.82063652575016L660.7746479166667,299.7254243865609L662.0660641666667,298.5640076622367L662.49653625,297.49371626228094L665.07936875,297.9064233675599L665.2946047916666,298.5701647028327L665.5098408333333,299.17394511401653L665.7250768749999,297.56869059056044L666.3707850000001,297.7628087103367L667.2317291666667,295.91882561147213L668.5231454166667,297.64351323992014L668.7383814583334,299.2047050371766L669.3840895833333,297.25673761218786L671.1059779166667,298.5543591976166L672.182158125,300.29150415956974L672.82786625,300.76218631863594L673.473574375,299.40956427156925L673.6888104166666,296.92701292037964L674.9802266666666,296.45937276631594L675.41069875,297.06550420075655L676.702115,295.79845153540373L677.347823125,298.18042010068893L677.99353125,296.44831144064665L679.0697114583334,295.59480292350054L683.15919625,295.07121010124683L684.0201404166665,298.04385570436716L684.4506125,299.94889237731695L685.5267927083333,299.1121022477746L686.6029729166667,300.1021302193403L689.4010414583333,300.4966583251953L690.261985625,296.05878312140703L690.90769375,299.0141429454088L694.136234375,299.1085321754217L696.5038308333334,293.6005116328597L696.719066875,298.8493859320879L697.364775,300.27248530834913L698.65619125,298.2352183237672L700.1628435416667,299.30765008181334L700.3780795833334,300.1431453227997L700.593315625,299.1940060555935L700.8085516666666,302.9373013526201L701.0237877083332,298.22753044962883L701.23902375,299.6952683702111L702.9609120833334,298.0074022039771L707.9113410416667,299.74663415551186L708.1265770833334,299.1418678313494L708.3418131249999,298.19389705359936L709.8484654166666,296.0689821243286L712.216061875,299.74188154935837L712.6465339583333,297.565207593143L715.2293664583333,296.8484067246318L715.4446025000001,296.12138157337904L716.090310625,298.7622126862407L716.5207827083333,300.69468639045954L716.7360187500001,297.8061748370528L717.1664908333333,300.16913578659296L721.255975625,291.9520033374429L722.3321558333333,297.9676201939583L722.9778639583333,297.48802830278873L723.6235720833333,300.55079927295446L725.5606964583333,299.2293837592006L725.7759325000001,298.2195167466998L727.06734875,296.38844882696867L727.4978208333333,299.120497956872L727.713056875,297.6150228828192L729.004473125,297.1225916519761L729.65018125,299.8268975839019L730.9415975,302.0179473310709L731.3720695833333,296.2497833967209L731.8025416666667,302.3671880438924L732.4482497916667,296.8582377657294L734.3853741666667,298.82331681996584L735.461554375,299.3215680271387L735.8920264583332,300.12420792877674L736.1072624999999,295.7845841497183L736.3224985416667,299.20105631649494L738.6900949999999,297.48335153609514L740.8424554166667,298.1787881478667L742.5643437499999,294.6528487429023L746.2233564583333,297.3053029552102L747.7300087499999,300.04285185039043L747.9452447916667,300.2022102177143L748.5909529166667,298.2593240365386L750.7433133333334,300.4374951198697L752.0347295833334,294.3654537051916L752.8956737499999,299.87688421458006L753.9718539583333,297.6959969550371L754.4023260416666,298.1803105548024L754.8327981250001,298.48673287034035L755.2632702083333,299.7579342350364L755.6937422916666,298.858790025115L756.5546864583333,299.547375805676L756.7699224999999,300.7286568507552L757.4156306250001,297.5931249409914L758.7070468750001,300.0133783891797L759.1375189583333,297.8368926271796L759.7832270833334,299.1031307205558L761.5051154166666,299.68254981189966L761.9355875,297.8678547888994L762.1508235416666,302.1427875086665L762.3660595833334,301.700896255672L764.0879479166666,299.2708173841238L767.3164885416666,302.23965135216713L767.746960625,300.47609178721905L768.1774327083333,297.71059464663267L768.6079047916666,300.32398311048746L769.038376875,300.1533780321479L770.97550125,301.6599232852459L771.8364454166667,295.310654938221L774.6345139583333,297.77665362507105L775.495458125,299.7738914191723L779.5849429166667,295.9535713195801L782.8134835416666,302.8711244016886L783.0287195833332,301.1611299663782L784.3201358333332,299.7356402426958L784.535371875,302.0350196361542L784.9658439583334,304.08341816812754L785.6115520833332,297.6971092671156L786.6877322916666,301.15853457152843L787.3334404166667,299.7006979137659L787.5486764583334,299.0856679826975L787.9791485416666,298.6717390194535L791.4229252083334,302.11537013947964L792.9295774999999,300.2446241378784L793.7905216666667,299.6009268909693L795.2971739583334,298.4014949351549L795.5124099999999,297.6386201903224L797.0190622916666,299.7170005887747L797.6647704166667,299.5853404775262L802.8304354166667,299.14750523120165L803.4761435416666,300.6053025647998L804.9827958333333,301.00242325663567L805.6285039583333,302.5969535186887L805.84374,295.58719650655985L806.2742120833333,299.76013638824224L806.4894481250001,298.36945697665215L807.9961004166668,296.34545627981424L808.4265725,298.3616370856762L810.7941689583333,295.75976498425007L811.8703491666668,300.7021467462182L813.8074735416667,299.98378133773804L814.237945625,299.5523531213403L814.6684177083333,298.95639821887016L815.529361875,296.82845532894135L816.17507,299.69905472546816L818.9731385416667,300.67228285223246L819.1883745833333,301.36800035089254L819.4036106249999,302.55794113874435L820.6950268749999,299.67057279497385L822.4169152083334,296.4566228836775L823.7083314583334,300.1100428029895L823.9235675,297.9774708971381L824.1388035416667,300.77395547926426L824.9997477083334,298.82174104452133L826.0759279166667,299.91103725135326L827.5825802083334,296.6254134327173L829.3044685416667,299.5749785602093L830.1654127083334,300.3359573185444L831.0263568749999,298.5919446721673L831.4568289583334,298.9436206743121L832.7482452083334,300.37670557945967L833.3939533333333,298.7781642526388L833.8244254166667,296.0598195940256L834.2548975,298.76996797323227L834.6853695833333,294.55561412870884L835.3310777083334,298.02735079079866L836.4072579166666,300.6256865262985L838.9900904166666,298.8282267227769L840.0662706249999,299.67526922374964L841.1424508333333,298.49908627569675L845.0166995833333,298.44215612113476L845.8776437500001,300.0348016321659L846.523351875,298.08217710256577L847.5995320833333,301.1174183487892L849.106184375,299.7072762846947L849.9671285416666,300.7950557023287L850.397600625,296.18367947638035L851.689016875,300.65360387414694L851.9042529166666,301.28893069177866L853.1956691666666,299.5211269259453L854.7023214583334,299.8203753903508L855.9937377083334,301.4078694358468L856.6394458333333,300.1117084622383L857.9308620833333,299.58149794489145L860.2984585416667,302.78252425044775L860.728930625,298.431912176311L862.2355829166667,301.15038604289293L862.8812910416667,300.4644546434283L863.5269991666667,301.1979682818055L863.95747125,301.44265727698803L865.0336514583332,298.42073006927967L868.477428125,300.2700668722391L868.9079002083332,299.79492422938347L869.12313625,299.6045447140932L869.9840804166666,299.54715390503407L870.1993164583332,299.97114423662424L871.060260625,299.4118872061372L871.4907327083332,299.9014702439308L872.7821489583332,296.06640077382326L872.997385,298.31654350459576L874.5040372916667,298.4344317317009L877.0868697916667,297.5090976282954L878.1630500000001,304.047807328403L878.8087581249999,296.93219528347254L880.7458825000001,300.36630433797836L880.9611185416667,300.95094230771065L882.2525347916667,301.28493648022413L882.4677708333334,297.94642727822065L885.4810754166666,300.67836967110634L886.3420195833334,303.8159436285496L886.7724916666666,299.2106401771307L887.2029637500001,299.2334004417062L887.848671875,301.0300175845623L888.49438,299.00050307810307L890.431504375,302.8185508027673L891.722920625,299.5049366056919L892.1533927083333,300.005210198462L894.5209891666666,301.08038341253996L894.7362252083333,297.9963268339634L896.0276414583333,299.8818362504244L897.53429375,299.13592145591974L902.69995875,300.15587792545557L903.345666875,300.7599251791835L903.991375,300.32360672205687L904.4218470833333,299.0188421830535L908.9418039583333,299.9625378623605L909.5875120833334,298.3274447247386L910.4484562499999,300.71821066737175L910.6636922916667,302.6920562013984L910.8789283333334,300.5215954631567L912.1703445833334,298.1290037557483L912.8160527083332,298.73298359662294L913.2465247916667,302.3059575110674L915.1836491666667,299.54004184901714L916.0445933333334,300.5621499121189L916.6903014583334,299.56200720369816L917.7664816666667,300.6302902624011L919.4883699999999,301.17865730822086L920.3493141666667,300.354658767581L920.7797862499999,299.5917250365019L921.2102583333334,300.73961424827576L924.0083268750001,299.1454828456044L924.4387989583333,298.84827081114054L925.0845070833334,301.15128768980503L927.6673395833334,298.600992038846L928.52828375,302.1644045636058L929.6044639583333,301.67575968801975L930.0349360416666,298.5664232894778L932.1872964583333,300.72959220409393L932.6177685416666,301.04544108361006L933.0482406250001,302.1820667311549L935.8463091666666,300.04666348546743L937.1377254166666,301.6871103271842L939.2900858333334,305.8561599254608L940.3662660416666,301.94326231628656L941.8729183333332,299.54625225812197L942.5186264583333,304.38389410823584L942.9490985416666,299.9837363958359L947.253819375,299.7750290110707L947.4690554166667,299.01265424489975L947.6842914583333,299.8788139075041L948.7604716666667,301.3321058154106L949.19094375,304.29599898308516L950.48236,301.7045000344515L951.3433041666667,301.85704689472914L953.0651925,297.83082547038794L953.2804285416667,298.71522030979395L954.35660875,301.05719900876284L954.5718447916666,301.8363090157509L955.4327889583334,299.73491555452347L957.8003854166667,299.735977306962L959.0918016666667,301.641693726182L960.3832179166667,299.9631698578596L961.0289260416666,299.7798939719796L964.2574666666667,298.0927777737379L965.1184108333333,303.1050919443369L966.6250631250001,302.4586111083627L967.4860072916666,301.98517344892025L968.5621874999999,300.9116293787956L969.6383677083334,300.9840701073408L970.4993118749999,302.6123320758343L970.7145479166667,297.5964113175869L971.14502,300.2803192436695L973.0821443749999,298.62321580946445L973.2973804166667,299.83390852063894L975.664976875,300.4472559392452L976.0954489583333,300.14720975607634L976.310685,301.6204586774111L977.8173372916666,301.71822978556156L978.247809375,298.66869139671326L978.4630454166667,298.81661204993725L978.6782814583333,301.1848312020302L978.8935175,302.45005248486996L979.7544616666668,301.2909924015403L980.18493375,299.97508227080107L984.9201266666668,299.7552967071533L985.5658347916667,300.04466918855906L988.579139375,299.4762889519334L989.6553195833333,298.6299121528864L989.870555625,301.12028620392084L990.3010277083333,299.21866511553526L992.0229160416667,299.3440783023834L993.09909625,302.037834122777L994.6057485416667,302.5455540269613L1000.6323577083334,301.24060129374266L1002.13901,302.18288692086935L1004.5066064583334,302.37269623577595L1005.5827866666666,300.6723727360368L1007.5199110416667,304.2833337932825L1007.7351470833333,301.93457167595625L1009.8875075000001,301.89838782697916L1010.1027435416667,301.32306406646967L1010.3179795833333,299.70960764586926L1010.7484516666666,299.4116568788886L1011.1789237500001,300.32541001588106L1011.6093958333333,302.6205283552408L1011.8246318749999,301.38966515660286L1012.0398679166666,301.6209193319082L1012.4703400000001,302.5202854424715L1016.3445887500001,299.19669695198536L1017.4207689583334,300.0132267102599L1018.4969491666666,301.0774846598506L1019.1426572916666,302.09698609262705L1019.7883654166666,299.88445130735636L1020.864545625,303.8264010474086L1023.2321420833333,301.70382871478796L1025.1692664583334,299.97880121320486L1025.8149745833334,302.39486663788557L1026.0302106249999,301.2304893657565L1027.967335,299.15026634931564L1029.2587512500002,299.3444153666496L1032.487291875,301.56975297629833L1032.7025279166667,305.1918961405754L1033.9939441666666,300.80920116603374L1034.8548883333333,302.28119733184576L1035.5005964583333,303.1652073562145L1036.7920127083332,304.4572589546442L1037.2224847916666,302.86788296699524L1039.1596091666665,300.356759801507L1040.0205533333333,301.4017348662019L1041.3119695833334,299.26040490716696L1042.3881497916666,302.7232234105468L1043.6795660416667,305.50071723014116L1044.5405102083332,301.2328347712755L1045.6166904166666,300.8728950768709L1047.1233427083332,297.612632535398L1047.984286875,302.012374535203L1049.92141125,300.63065822422504L1050.567119375,300.8826249986887L1053.149951875,300.8949446976185L1054.6566041666667,301.4543000385165L1055.3023122916668,302.978572063148L1055.732784375,299.86719361692667L1055.9480204166666,299.63673716038465L1056.8089645833334,299.8726484403014L1057.024200625,302.55598616600037L1057.2394366666667,300.96429005265236L1059.8222691666667,301.523533038795L1061.1136854166666,300.14232513308525L1061.3289214583333,303.6223900914192L1061.7593935416667,301.35177632421255L1062.8355737499999,299.0936479791999L1063.0508097916668,300.00133395940065L1063.6965179166666,300.0885942801833L1064.9879341666667,304.0296339467168L1065.8488783333335,303.0142840221524L1067.355530625,302.86504600942135L1069.5078910416667,302.9642496407032L1070.7993072916668,300.9425437897444L1071.6602514583333,299.4538320451975L1072.3059595833333,303.093263797462L1074.0278479166666,301.8338456377387L1074.45832,301.25803032517433L1077.2563885416666,300.57746667414904L1078.1173327083334,302.1491383612156L1078.3325687499998,304.75866743922234L1082.4220535416666,302.7683591246605L1082.6372895833333,302.61579541116953L1083.2829977083334,302.35969959944487L1084.78965,301.1589390486479L1085.2201220833333,301.6809364333749L1086.9420104166666,300.22552663832903L1087.3724825,302.92540860176086L1087.5877185416666,302.5214539319277L1090.3857870833333,300.4096676558256L1090.8162591666667,298.9201525747776L1091.0314952083334,300.72352504730225L1092.9686195833333,300.4678730368614L1093.6143277083333,302.45774878561497L1094.0447997916665,298.52022582292557L1095.9819241666667,300.11791887134314L1096.6276322916667,303.15782003104687L1097.058104375,300.05687653273344L1097.4885764583332,300.5181265100837L1100.0714089583332,301.6022375449538L1103.7304216666666,300.56498125195503L1104.806601875,301.81737443059683L1106.9589622916667,302.5749825462699L1108.2503785416666,300.969674654305L1109.7570308333331,302.512723967433L1111.0484470833333,302.6690459474921L1111.4789191666666,301.2318263873458L1112.3398633333334,299.11393363028765L1113.846515625,302.17380303889513L1114.0617516666666,301.82768017053604L1114.2769877083333,301.16451746225357L1116.4293481250002,303.3136925920844L1119.8731247916667,300.2455257847905L1120.949305,303.2268957346678L1122.0254852083333,306.2999808713794L1123.1016654166667,302.2006979584694L1123.3169014583334,301.0170855522156L1123.7473735416665,300.04900608211756L1124.3930816666666,300.90987664461136L1126.5454420833332,303.99139119684696L1127.40638625,303.8927577659488L1127.6216222916667,300.63514117896557L1128.9130385416665,303.20429557561874L1129.7739827083333,300.0673283338547L1129.98921875,301.70617412030697L1131.7111070833332,301.35267516225576L1132.3568152083333,301.2744144573808L1132.57205125,300.238183401525L1133.0025233333333,302.2782367840409L1133.6482314583334,302.44627736508846L1133.8634675,300.6050216779113L1134.0787035416665,301.31548292934895L1134.2939395833332,299.9313257113099L1135.15488375,301.27071798592806L1135.5853558333333,302.901875898242L1136.2310639583334,303.3881950303912L1136.4463,300.18994107842445L1136.6615360416667,301.50041043013334L1136.8767720833332,302.2780205011368L1137.3072441666668,301.9693735614419L1137.9529522916666,303.62668766081333L1138.1681883333333,304.8346473425627L1139.4596045833332,304.4559781104326L1140.7510208333333,300.45096645504236L1141.1814929166667,299.4327262043953L1141.8272010416667,300.0434080064297L1144.4100335416667,300.49081026017666L1146.131921875,302.54671689867973L1146.3471579166667,302.8202024176717L1146.5623939583334,301.6855289340019L1147.8538102083335,304.1426796838641L1149.3604625,300.8611596226692L1150.4366427083335,301.774123467505L1151.943295,303.39326222985983L1152.8042391666668,302.69776944071054L1154.7413635416667,301.8122538626194L1156.0327797916666,304.0709552168846L1156.463251875,300.6457615122199L1157.10896,301.5239094272256L1158.6156122916666,301.875155672431L1159.9070285416667,301.9509024396539L1160.5527366666665,299.53797452151775L1160.9832087500001,300.16733249276876L1161.1984447916666,303.1429470703006L1163.1355691666665,303.4306735545397L1165.2879295833334,303.898004733026L1165.503165625,305.01084487885237L1167.2250539583333,301.8220708593726L1169.8078864583333,302.9388630837202L1170.4535945833334,302.06531328707933L1171.0993027083334,303.67062117904425L1173.89737125,305.09999837726355L1175.6192595833334,304.0618657171726L1177.3411479166666,300.5144244208932L1177.5563839583333,302.3528571948409L1178.2020920833334,304.25555688887835L1178.6325641666665,304.2675254791975L1178.8478002083334,301.01861357688904L1181.8611047916668,302.81554812192917L1183.1525210416667,302.54786291718483L1183.582993125,301.5062781572342L1185.9505895833333,302.31997376680374" style="fill: none;" fill="none"></path></g></g></g></g></g><g><g opacity="0.000640147"><span fill="rgb(0, 0, 0)" stroke="none" stroke-width="1px">Alt + Scroll to Zoom</span></g></g></g><g transform="translate(31, 377)" clip-path="url(#clip_1)"><clipPath id="clip_1"><rect width="1291" height="22"></rect></clipPath><g><g><line x1="0" y1="0" x2="0" y2="5" style="visibility: inherit;" fill="rgb(0, 0, 0)" stroke="rgb(204, 204, 204)" stroke-width="1px"></line><line x1="107.61802083333333" y1="0" x2="107.61802083333333" y2="5" style="visibility: inherit;" fill="rgb(0, 0, 0)" stroke="rgb(204, 204, 204)" stroke-width="1px"></line><line x1="215.23604166666667" y1="0" x2="215.23604166666667" y2="5" style="visibility: inherit;" fill="rgb(0, 0, 0)" stroke="rgb(204, 204, 204)" stroke-width="1px"></line><line x1="322.8540625" y1="0" x2="322.8540625" y2="5" style="visibility: inherit;" fill="rgb(0, 0, 0)" stroke="rgb(204, 204, 204)" stroke-width="1px"></line><line x1="430.47208333333333" y1="0" x2="430.47208333333333" y2="5" style="visibility: inherit;" fill="rgb(0, 0, 0)" stroke="rgb(204, 204, 204)" stroke-width="1px"></line><line x1="538.0901041666667" y1="0" x2="538.0901041666667" y2="5" style="visibility: inherit;" fill="rgb(0, 0, 0)" stroke="rgb(204, 204, 204)" stroke-width="1px"></line><line x1="645.708125" y1="0" x2="645.708125" y2="5" style="visibility: inherit;" fill="rgb(0, 0, 0)" stroke="rgb(204, 204, 204)" stroke-width="1px"></line><line x1="753.3261458333334" y1="0" x2="753.3261458333334" y2="5" style="visibility: inherit;" fill="rgb(0, 0, 0)" stroke="rgb(204, 204, 204)" stroke-width="1px"></line><line x1="860.9441666666667" y1="0" x2="860.9441666666667" y2="5" style="visibility: inherit;" fill="rgb(0, 0, 0)" stroke="rgb(204, 204, 204)" stroke-width="1px"></line><line x1="968.5621874999999" y1="0" x2="968.5621874999999" y2="5" style="visibility: inherit;" fill="rgb(0, 0, 0)" stroke="rgb(204, 204, 204)" stroke-width="1px"></line><line x1="1076.1802083333334" y1="0" x2="1076.1802083333334" y2="5" style="visibility: inherit;" fill="rgb(0, 0, 0)" stroke="rgb(204, 204, 204)" stroke-width="1px"></line><line x1="1183.7982291666667" y1="0" x2="1183.7982291666667" y2="5" style="visibility: inherit;" fill="rgb(0, 0, 0)" stroke="rgb(204, 204, 204)" stroke-width="1px"></line><line x1="1291.41625" y1="0" x2="1291.41625" y2="5" style="visibility: inherit;" fill="rgb(0, 0, 0)" stroke="rgb(204, 204, 204)" stroke-width="1px"></line></g><g transform="translate(0, 8)"><text x="0" y="0" dx="0em" dy="0.95em" style="text-anchor: middle; visibility: hidden; font-family: &quot;Helvetica Neue&quot;, sans-serif; font-size: 12px; font-weight: 200;" fill="rgb(50, 49, 63)" stroke="none" stroke-width="1px">-500</text><text x="107.61802083333333" y="0" dx="0em" dy="0.95em" style="text-anchor: middle; visibility: inherit; font-family: &quot;Helvetica Neue&quot;, sans-serif; font-size: 12px; font-weight: 200;" fill="rgb(50, 49, 63)" stroke="none" stroke-width="1px">0</text><text x="215.23604166666667" y="0" dx="0em" dy="0.95em" style="text-anchor: middle; visibility: inherit; font-family: &quot;Helvetica Neue&quot;, sans-serif; font-size: 12px; font-weight: 200;" fill="rgb(50, 49, 63)" stroke="none" stroke-width="1px">500</text><text x="322.8540625" y="0" dx="0em" dy="0.95em" style="text-anchor: middle; visibility: inherit; font-family: &quot;Helvetica Neue&quot;, sans-serif; font-size: 12px; font-weight: 200;" fill="rgb(50, 49, 63)" stroke="none" stroke-width="1px">1k</text><text x="430.47208333333333" y="0" dx="0em" dy="0.95em" style="text-anchor: middle; visibility: inherit; font-family: &quot;Helvetica Neue&quot;, sans-serif; font-size: 12px; font-weight: 200;" fill="rgb(50, 49, 63)" stroke="none" stroke-width="1px">1.5k</text><text x="538.0901041666667" y="0" dx="0em" dy="0.95em" style="text-anchor: middle; visibility: inherit; font-family: &quot;Helvetica Neue&quot;, sans-serif; font-size: 12px; font-weight: 200;" fill="rgb(50, 49, 63)" stroke="none" stroke-width="1px">2k</text><text x="645.708125" y="0" dx="0em" dy="0.95em" style="text-anchor: middle; visibility: inherit; font-family: &quot;Helvetica Neue&quot;, sans-serif; font-size: 12px; font-weight: 200;" fill="rgb(50, 49, 63)" stroke="none" stroke-width="1px">2.5k</text><text x="753.3261458333334" y="0" dx="0em" dy="0.95em" style="text-anchor: middle; visibility: inherit; font-family: &quot;Helvetica Neue&quot;, sans-serif; font-size: 12px; font-weight: 200;" fill="rgb(50, 49, 63)" stroke="none" stroke-width="1px">3k</text><text x="860.9441666666667" y="0" dx="0em" dy="0.95em" style="text-anchor: middle; visibility: inherit; font-family: &quot;Helvetica Neue&quot;, sans-serif; font-size: 12px; font-weight: 200;" fill="rgb(50, 49, 63)" stroke="none" stroke-width="1px">3.5k</text><text x="968.5621874999999" y="0" dx="0em" dy="0.95em" style="text-anchor: middle; visibility: inherit; font-family: &quot;Helvetica Neue&quot;, sans-serif; font-size: 12px; font-weight: 200;" fill="rgb(50, 49, 63)" stroke="none" stroke-width="1px">4k</text><text x="1076.1802083333334" y="0" dx="0em" dy="0.95em" style="text-anchor: middle; visibility: inherit; font-family: &quot;Helvetica Neue&quot;, sans-serif; font-size: 12px; font-weight: 200;" fill="rgb(50, 49, 63)" stroke="none" stroke-width="1px">4.5k</text><text x="1183.7982291666667" y="0" dx="0em" dy="0.95em" style="text-anchor: middle; visibility: inherit; font-family: &quot;Helvetica Neue&quot;, sans-serif; font-size: 12px; font-weight: 200;" fill="rgb(50, 49, 63)" stroke="none" stroke-width="1px">5k</text><text x="1291.41625" y="0" dx="0em" dy="0.95em" style="text-anchor: middle; visibility: hidden; font-family: &quot;Helvetica Neue&quot;, sans-serif; font-size: 12px; font-weight: 200;" fill="rgb(50, 49, 63)" stroke="none" stroke-width="1px">5.5k</text></g><line x1="0" y1="0" x2="1291.41625" y2="0" fill="rgb(0, 0, 0)" stroke="rgb(204, 204, 204)" stroke-width="1px"></line></g></g></g></g></svg>